<svg xmlns="http://www.w3.org/2000/svg" xmlns:xlink="http://www.w3.org/1999/xlink" width="1500" zoomAndPan="magnify" viewBox="0 0 1125 225" height="300" preserveAspectRatio="xMidYMid meet" version="1.0"><defs><g/><clipPath id="1ad5501307"><rect x="0" width="1089" y="0" height="225"/></clipPath></defs><g transform="matrix(1, 0, 0, 1, 18, -0.000000000000008531)"><g clip-path="url(#1ad5501307)"><g fill="#059669" fill-opacity="1"><g transform="translate(0.975666, 166.739895)"><g><path d="M 78.53125 47.96875 L 72 47.96875 C 70.601562 46.820312 69.242188 45.644531 67.921875 44.4375 C 63.984375 41.050781 60.75 38.175781 58.21875 35.8125 C 54.039062 31.757812 50.410156 27.984375 47.328125 24.484375 C 44.972656 21.828125 42.585938 18.804688 40.171875 15.421875 C 38.660156 13.296875 37.023438 10.90625 35.265625 8.25 C 35.265625 8.25 34.660156 7.28125 33.453125 5.34375 C 33.035156 5.40625 32.707031 5.4375 32.46875 5.4375 C 30.40625 5.4375 28.710938 5.078125 27.390625 4.359375 C 25.210938 3.265625 24.125 1.359375 24.125 -1.359375 C 24.125 -2.804688 24.695312 -4.4375 25.84375 -6.25 C 26.207031 -6.800781 26.78125 -7.5625 27.5625 -8.53125 C 24.300781 -8.707031 21.972656 -9.097656 20.578125 -9.703125 C 18.160156 -10.785156 16.5625 -12.445312 15.78125 -14.6875 C 15.59375 -15.226562 15.5 -15.800781 15.5 -16.40625 C 15.5 -17.914062 15.925781 -19.640625 16.78125 -21.578125 C 17.082031 -22.242188 17.535156 -23.09375 18.140625 -24.125 C 16.203125 -24.601562 13.539062 -26.414062 10.15625 -29.5625 C 9.007812 -30.644531 7.4375 -32.21875 5.4375 -34.28125 C 7.375 -36.332031 8.914062 -37.875 10.0625 -38.90625 C 13.570312 -42.101562 16.265625 -43.914062 18.140625 -44.34375 C 17.585938 -45.363281 17.160156 -46.207031 16.859375 -46.875 C 15.953125 -48.988281 15.5 -50.773438 15.5 -52.234375 C 15.5 -52.710938 15.59375 -53.253906 15.78125 -53.859375 C 16.75 -56.578125 19.015625 -58.421875 22.578125 -59.390625 C 23.722656 -59.628906 25.382812 -59.8125 27.5625 -59.9375 C 26.84375 -60.90625 26.300781 -61.660156 25.9375 -62.203125 C 24.726562 -64.078125 24.125 -65.707031 24.125 -67.09375 C 24.125 -69.269531 24.832031 -70.960938 26.25 -72.171875 C 27.664062 -73.390625 29.765625 -74 32.546875 -74 C 32.734375 -74 32.898438 -74 33.046875 -74 C 33.203125 -74 33.335938 -73.96875 33.453125 -73.90625 C 33.453125 -73.90625 34.03125 -74.84375 35.1875 -76.71875 C 36.695312 -79.007812 38.359375 -81.394531 40.171875 -83.875 C 42.585938 -87.195312 44.972656 -90.21875 47.328125 -92.9375 C 50.296875 -96.320312 53.925781 -100.070312 58.21875 -104.1875 C 62.019531 -107.8125 65.21875 -110.769531 67.8125 -113.0625 C 70.414062 -115.363281 71.8125 -116.515625 72 -116.515625 L 78.53125 -116.515625 C 78.46875 -116.515625 77.195312 -114.640625 74.71875 -110.890625 C 72.0625 -106.722656 69.34375 -102.28125 66.5625 -97.5625 C 62.988281 -91.519531 60.21875 -86.488281 58.25 -82.46875 C 56.289062 -78.445312 53.984375 -73.019531 51.328125 -66.1875 C 50.421875 -63.957031 49.269531 -60.9375 47.875 -57.125 C 50.175781 -56.09375 51.929688 -55.21875 53.140625 -54.5 C 56.890625 -52.382812 59.125 -50.476562 59.84375 -48.78125 C 58.820312 -48.0625 58.035156 -47.457031 57.484375 -46.96875 C 54.046875 -44.3125 51.660156 -42.285156 50.328125 -40.890625 C 49.484375 -39.921875 48.457031 -38.53125 47.25 -36.71875 C 46.882812 -36.175781 46.367188 -35.363281 45.703125 -34.28125 C 46.367188 -33.25 46.882812 -32.460938 47.25 -31.921875 C 48.507812 -29.921875 49.535156 -28.5 50.328125 -27.65625 C 51.359375 -26.570312 53.234375 -24.941406 55.953125 -22.765625 C 56.859375 -22.035156 58.15625 -21.003906 59.84375 -19.671875 C 59.125 -17.984375 56.921875 -16.082031 53.234375 -13.96875 C 52.015625 -13.238281 50.226562 -12.359375 47.875 -11.328125 C 48.664062 -9.148438 49.332031 -7.335938 49.875 -5.890625 C 53.019531 2.265625 55.832031 8.914062 58.3125 14.0625 C 60.300781 18.101562 63.019531 23.054688 66.46875 28.921875 C 68.707031 32.671875 71.457031 37.113281 74.71875 42.25 C 77.195312 46.0625 78.46875 47.96875 78.53125 47.96875 Z M 72.71875 44.4375 C 72.71875 44.4375 71.753906 42.921875 69.828125 39.890625 C 66.796875 35.359375 64.554688 31.914062 63.109375 29.5625 C 60.265625 24.90625 58.03125 21.003906 56.40625 17.859375 C 54.644531 14.535156 52.675781 10.125 50.5 4.625 C 48.988281 0.875 47.421875 -3.234375 45.796875 -7.703125 C 45.191406 -9.515625 44.554688 -11.359375 43.890625 -13.234375 C 46.242188 -14.265625 47.992188 -15.050781 49.140625 -15.59375 C 52.710938 -17.34375 54.5 -18.523438 54.5 -19.140625 C 54.5 -19.441406 53.441406 -20.4375 51.328125 -22.125 C 49.929688 -23.269531 48.78125 -24.328125 47.875 -25.296875 C 46.425781 -26.867188 44.914062 -28.863281 43.34375 -31.28125 C 42.863281 -32.070312 42.257812 -33.070312 41.53125 -34.28125 C 42.195312 -35.488281 42.769531 -36.453125 43.25 -37.171875 C 44.757812 -39.472656 46.300781 -41.5 47.875 -43.25 C 48.71875 -44.15625 50.203125 -45.425781 52.328125 -47.0625 C 53.773438 -48.269531 54.5 -49.054688 54.5 -49.421875 C 54.5 -50.023438 52.742188 -51.171875 49.234375 -52.859375 C 48.085938 -53.410156 46.304688 -54.195312 43.890625 -55.21875 C 43.890625 -55.21875 44.523438 -57.03125 45.796875 -60.65625 C 47.910156 -66.40625 49.453125 -70.546875 50.421875 -73.078125 C 52.410156 -77.984375 54.40625 -82.398438 56.40625 -86.328125 C 58.09375 -89.585938 60.296875 -93.457031 63.015625 -97.9375 C 64.648438 -100.46875 66.859375 -103.910156 69.640625 -108.265625 C 70.671875 -109.773438 71.695312 -111.316406 72.71875 -112.890625 C 72.300781 -113.128906 69.367188 -110.710938 63.921875 -105.640625 C 57.941406 -100.078125 53.109375 -95.117188 49.421875 -90.765625 C 47.609375 -88.585938 45.503906 -85.789062 43.109375 -82.375 C 40.722656 -78.957031 38.835938 -76.191406 37.453125 -74.078125 C 36.660156 -72.804688 35.90625 -71.566406 35.1875 -70.359375 C 32.21875 -70.359375 30.203125 -70.085938 29.140625 -69.546875 C 28.085938 -69.003906 27.5625 -68.097656 27.5625 -66.828125 C 27.5625 -65.921875 27.785156 -65.070312 28.234375 -64.28125 C 28.691406 -63.5 29.648438 -62.351562 31.109375 -60.84375 L 35.265625 -57.03125 C 34.960938 -57.03125 34.597656 -57.03125 34.171875 -57.03125 C 33.753906 -57.03125 33.210938 -57.0625 32.546875 -57.125 C 28.984375 -57.125 26.050781 -56.820312 23.75 -56.21875 C 20.1875 -55.1875 18.523438 -53.554688 18.765625 -51.328125 C 18.765625 -49.929688 19.550781 -48.054688 21.125 -45.703125 C 21.664062 -44.972656 22.453125 -43.945312 23.484375 -42.625 C 22.578125 -42.375 21.882812 -42.160156 21.40625 -41.984375 C 19.945312 -41.503906 18.582031 -40.929688 17.3125 -40.265625 C 16.050781 -39.597656 14.539062 -38.414062 12.78125 -36.71875 C 12.175781 -36.175781 11.390625 -35.363281 10.421875 -34.28125 C 11.390625 -33.25 12.175781 -32.460938 12.78125 -31.921875 C 14.59375 -30.109375 16.132812 -28.835938 17.40625 -28.109375 C 18.3125 -27.679688 19.882812 -27.140625 22.125 -26.484375 C 22.488281 -26.359375 22.941406 -26.207031 23.484375 -26.03125 C 22.453125 -24.695312 21.664062 -23.632812 21.125 -22.84375 C 19.550781 -20.488281 18.765625 -18.617188 18.765625 -17.234375 C 18.460938 -14.566406 20.851562 -12.8125 25.9375 -11.96875 C 28.164062 -11.601562 30.367188 -11.421875 32.546875 -11.421875 C 33.210938 -11.421875 33.769531 -11.421875 34.21875 -11.421875 C 34.675781 -11.421875 35.023438 -11.453125 35.265625 -11.515625 L 31.109375 -7.53125 C 28.742188 -5.164062 27.5625 -3.195312 27.5625 -1.625 C 27.5625 -0.363281 28.101562 0.535156 29.1875 1.078125 C 30.28125 1.628906 32.28125 1.90625 35.1875 1.90625 C 35.90625 3.050781 36.660156 4.257812 37.453125 5.53125 C 39.628906 8.851562 41.472656 11.570312 42.984375 13.6875 C 45.273438 17.007812 47.421875 19.882812 49.421875 22.3125 C 53.222656 26.78125 58.03125 31.707031 63.84375 37.09375 C 69.34375 42.164062 72.300781 44.613281 72.71875 44.4375 Z M 44.4375 -63.84375 C 44.4375 -62.382812 43.953125 -61.203125 42.984375 -60.296875 C 42.015625 -59.390625 40.804688 -58.9375 39.359375 -58.9375 C 38.023438 -58.9375 36.875 -59.40625 35.90625 -60.34375 C 34.9375 -61.28125 34.453125 -62.445312 34.453125 -63.84375 C 34.453125 -65.226562 34.9375 -66.390625 35.90625 -67.328125 C 36.875 -68.265625 38.023438 -68.734375 39.359375 -68.734375 C 40.742188 -68.734375 41.9375 -68.265625 42.9375 -67.328125 C 43.9375 -66.390625 44.4375 -65.226562 44.4375 -63.84375 Z M 49.328125 -48.96875 C 47.390625 -48.0625 45.664062 -46.703125 44.15625 -44.890625 C 42.882812 -43.378906 42.007812 -42.046875 41.53125 -40.890625 C 40.625 -40.953125 39.835938 -41.015625 39.171875 -41.078125 C 35.609375 -41.441406 32.523438 -42.195312 29.921875 -43.34375 C 28.585938 -44.070312 27.148438 -45.414062 25.609375 -47.375 C 24.066406 -49.34375 23.359375 -50.566406 23.484375 -51.046875 C 23.609375 -51.535156 24.769531 -52.035156 26.96875 -52.546875 C 29.175781 -53.054688 31.488281 -53.3125 33.90625 -53.3125 C 36.207031 -53.3125 38.351562 -53.039062 40.34375 -52.5 C 42.34375 -51.957031 44.429688 -51.203125 46.609375 -50.234375 C 47.335938 -49.867188 48.242188 -49.445312 49.328125 -48.96875 Z M 38.53125 -31.375 C 37.625 -30.894531 36.84375 -30.53125 36.1875 -30.28125 C 33.882812 -29.5 31.222656 -29.109375 28.203125 -29.109375 C 25.421875 -29.109375 22.488281 -29.953125 19.40625 -31.640625 C 18.4375 -32.191406 17.195312 -33.070312 15.6875 -34.28125 C 17.195312 -35.425781 18.4375 -36.269531 19.40625 -36.8125 C 22.550781 -38.5625 25.484375 -39.4375 28.203125 -39.4375 C 31.347656 -39.4375 33.976562 -39.078125 36.09375 -38.359375 C 36.8125 -38.117188 37.625 -37.722656 38.53125 -37.171875 L 37.546875 -34.28125 Z M 49.328125 -19.59375 C 48.242188 -19.101562 47.367188 -18.707031 46.703125 -18.40625 C 44.285156 -17.320312 42.09375 -16.519531 40.125 -16 C 38.15625 -15.488281 36.054688 -15.234375 33.828125 -15.234375 C 31.347656 -15.234375 29.035156 -15.488281 26.890625 -16 C 24.742188 -16.519531 23.609375 -16.988281 23.484375 -17.40625 C 23.359375 -17.945312 24.066406 -19.1875 25.609375 -21.125 C 27.148438 -23.0625 28.585938 -24.394531 29.921875 -25.125 C 32.035156 -26.144531 34.578125 -26.867188 37.546875 -27.296875 C 38.566406 -27.359375 39.894531 -27.476562 41.53125 -27.65625 C 42.007812 -26.507812 42.851562 -25.207031 44.0625 -23.75 C 45.695312 -21.882812 47.453125 -20.5 49.328125 -19.59375 Z M 44.4375 -4.71875 C 44.4375 -3.320312 43.953125 -2.140625 42.984375 -1.171875 C 42.015625 -0.210938 40.804688 0.265625 39.359375 0.265625 C 38.085938 0.265625 36.953125 -0.210938 35.953125 -1.171875 C 34.953125 -2.140625 34.453125 -3.320312 34.453125 -4.71875 C 34.453125 -6.164062 34.921875 -7.328125 35.859375 -8.203125 C 36.796875 -9.078125 37.960938 -9.515625 39.359375 -9.515625 C 40.742188 -9.515625 41.9375 -9.0625 42.9375 -8.15625 C 43.9375 -7.25 44.4375 -6.101562 44.4375 -4.71875 Z M 44.4375 -4.71875 "/></g></g></g><g fill="#059669" fill-opacity="1"><g transform="translate(85.756935, 166.739895)"><g><path d="M 24.03125 -115.25 C 22.519531 -114.039062 21.34375 -112.679688 20.5 -111.171875 C 18.925781 -108.566406 18.140625 -105.515625 18.140625 -102.015625 L 18.140625 -98.296875 C 15.898438 -98.296875 13.859375 -97.734375 12.015625 -96.609375 C 10.171875 -95.492188 8.828125 -94.03125 7.984375 -92.21875 L 7.984375 -132.5625 L 10.15625 -132.5625 C 10.582031 -132.257812 10.882812 -132.019531 11.0625 -131.84375 C 12.570312 -130.394531 13.929688 -128.398438 15.140625 -125.859375 C 16.046875 -123.921875 17.53125 -122.140625 19.59375 -120.515625 C 21.457031 -119.003906 22.9375 -118.25 24.03125 -118.25 Z M 33.90625 0 L 7.984375 0 L 7.984375 -80.15625 C 7.984375 -84.632812 9.007812 -88.304688 11.0625 -91.171875 C 13.113281 -94.046875 16.109375 -95.484375 20.046875 -95.484375 C 23.429688 -95.484375 26.117188 -93.910156 28.109375 -90.765625 C 29.441406 -88.710938 30.441406 -86.175781 31.109375 -83.15625 L 30.109375 -82.421875 C 28.773438 -84.117188 27.742188 -85.269531 27.015625 -85.875 C 25.503906 -87.195312 23.9375 -87.859375 22.3125 -87.859375 C 20.4375 -87.859375 19.195312 -86.53125 18.59375 -83.875 C 18.289062 -82.664062 18.140625 -81.425781 18.140625 -80.15625 L 18.140625 -10.15625 L 33.90625 -10.15625 Z M 33.90625 0 "/></g></g></g><g fill="#059669" fill-opacity="1"><g transform="translate(115.860957, 154.135649)"><g><path d="M 30.28125 -152.796875 C 29.195312 -150.429688 28.257812 -148.796875 27.46875 -147.890625 C 26.6875 -146.984375 25.722656 -146.289062 24.578125 -145.8125 L 5.71875 -137.5625 C 6.675781 -139.789062 7.59375 -141.40625 8.46875 -142.40625 C 9.351562 -143.40625 10.367188 -144.144531 11.515625 -144.625 Z M 29.828125 -144.546875 C 28.804688 -142.242188 27.898438 -140.640625 27.109375 -139.734375 C 26.328125 -138.828125 25.300781 -138.101562 24.03125 -137.5625 L 5.34375 -129.3125 C 6.195312 -131.300781 6.863281 -132.628906 7.34375 -133.296875 C 8.3125 -134.628906 9.550781 -135.65625 11.0625 -136.375 Z M 29.828125 -144.546875 "/></g></g></g><g fill="#059669" fill-opacity="1"><g transform="translate(119.669437, 166.739895)"><g><path d="M 13.234375 -10.15625 L 13.234375 -78.609375 C 13.234375 -80.546875 12.992188 -82.148438 12.515625 -83.421875 C 11.847656 -85.296875 10.695312 -86.234375 9.0625 -86.234375 C 7.375 -86.234375 5.804688 -85.628906 4.359375 -84.421875 C 3.804688 -83.929688 2.773438 -82.722656 1.265625 -80.796875 L 0.359375 -81.515625 C 0.960938 -84.660156 1.898438 -87.203125 3.171875 -89.140625 C 5.222656 -92.273438 7.941406 -93.84375 11.328125 -93.84375 C 15.203125 -93.84375 18.226562 -92.363281 20.40625 -89.40625 C 22.394531 -86.625 23.390625 -83.023438 23.390625 -78.609375 L 23.390625 -10.15625 L 31.109375 -10.15625 L 31.109375 0 L 0 0 L 0 -10.15625 Z M 23.390625 -90.59375 C 22.546875 -92.34375 21.1875 -93.789062 19.3125 -94.9375 C 17.4375 -96.082031 15.410156 -96.65625 13.234375 -96.65625 L 13.234375 -102.015625 C 13.234375 -104.671875 12.734375 -107.144531 11.734375 -109.4375 C 10.742188 -111.738281 9.28125 -113.675781 7.34375 -115.25 L 7.34375 -118.25 C 8.4375 -118.25 9.945312 -119.019531 11.875 -120.5625 C 13.8125 -122.101562 15.265625 -123.882812 16.234375 -125.90625 C 17.203125 -127.925781 18.347656 -129.664062 19.671875 -131.125 C 20.097656 -131.539062 20.644531 -132.019531 21.3125 -132.5625 L 23.390625 -132.5625 Z M 23.390625 -90.59375 "/></g></g></g><g fill="#059669" fill-opacity="1"><g transform="translate(150.680335, 166.739895)"><g><path d="M 31.734375 0 L 0 0 L 0 -10.15625 L 15.328125 -10.15625 L 15.328125 -40.796875 C 15.328125 -43.878906 14.539062 -46.8125 12.96875 -49.59375 C 11.9375 -51.46875 10.757812 -52.953125 9.4375 -54.046875 L 9.4375 -57.03125 C 10.519531 -57.03125 12.023438 -57.800781 13.953125 -59.34375 C 15.890625 -60.882812 17.34375 -62.664062 18.3125 -64.6875 C 19.28125 -66.71875 20.429688 -68.457031 21.765625 -69.90625 C 22.179688 -70.332031 22.722656 -70.847656 23.390625 -71.453125 L 25.484375 -71.453125 L 25.484375 -10.15625 L 31.734375 -10.15625 Z M 25.203125 17.953125 C 25.203125 20.066406 24.445312 21.878906 22.9375 23.390625 C 21.425781 24.898438 19.582031 25.65625 17.40625 25.65625 C 15.289062 25.65625 13.476562 24.898438 11.96875 23.390625 C 10.457031 21.878906 9.703125 20.066406 9.703125 17.953125 C 9.703125 15.835938 10.457031 14.007812 11.96875 12.46875 C 13.476562 10.925781 15.289062 10.15625 17.40625 10.15625 C 19.582031 10.15625 21.425781 10.925781 22.9375 12.46875 C 24.445312 14.007812 25.203125 15.835938 25.203125 17.953125 Z M 25.203125 38.359375 C 25.203125 40.472656 24.445312 42.285156 22.9375 43.796875 C 21.425781 45.304688 19.582031 46.0625 17.40625 46.0625 C 15.289062 46.0625 13.476562 45.304688 11.96875 43.796875 C 10.457031 42.285156 9.703125 40.472656 9.703125 38.359375 C 9.703125 36.242188 10.457031 34.429688 11.96875 32.921875 C 13.476562 31.410156 15.289062 30.65625 17.40625 30.65625 C 19.582031 30.65625 21.425781 31.410156 22.9375 32.921875 C 24.445312 34.429688 25.203125 36.242188 25.203125 38.359375 Z M 25.203125 38.359375 "/></g></g></g><g fill="#059669" fill-opacity="1"><g transform="translate(189.217496, 142.891575)"><g><path d="M 28.75 53.40625 C 27.71875 55.757812 26.789062 57.375 25.96875 58.25 C 25.15625 59.132812 24.175781 59.847656 23.03125 60.390625 L 4.265625 68.640625 C 5.171875 66.398438 6.0625 64.765625 6.9375 63.734375 C 7.8125 62.710938 8.820312 61.988281 9.96875 61.5625 Z M 28.75 53.40625 "/></g></g></g><g fill="#059669" fill-opacity="1"><g transform="translate(182.325963, 166.739895)"><g><path d="M 28.109375 -58.765625 C 28.109375 -56.640625 27.351562 -54.804688 25.84375 -53.265625 C 24.332031 -51.722656 22.519531 -50.953125 20.40625 -50.953125 C 18.289062 -50.953125 16.472656 -51.722656 14.953125 -53.265625 C 13.441406 -54.804688 12.6875 -56.640625 12.6875 -58.765625 C 12.6875 -60.878906 13.441406 -62.691406 14.953125 -64.203125 C 16.472656 -65.710938 18.289062 -66.46875 20.40625 -66.46875 C 22.519531 -66.46875 24.332031 -65.710938 25.84375 -64.203125 C 27.351562 -62.691406 28.109375 -60.878906 28.109375 -58.765625 Z M 28.109375 -79.15625 C 28.109375 -77.039062 27.351562 -75.226562 25.84375 -73.71875 C 24.332031 -72.207031 22.519531 -71.453125 20.40625 -71.453125 C 18.289062 -71.453125 16.472656 -72.207031 14.953125 -73.71875 C 13.441406 -75.226562 12.6875 -77.039062 12.6875 -79.15625 C 12.6875 -81.269531 13.441406 -83.082031 14.953125 -84.59375 C 16.472656 -86.113281 18.289062 -86.875 20.40625 -86.875 C 22.519531 -86.875 24.332031 -86.113281 25.84375 -84.59375 C 27.351562 -83.082031 28.109375 -81.269531 28.109375 -79.15625 Z M 40.796875 0 C 40.796875 6.53125 39.769531 11.425781 37.71875 14.6875 C 35.238281 18.5 31.160156 20.40625 25.484375 20.40625 C 19.859375 20.40625 15.835938 18.53125 13.421875 14.78125 C 11.242188 11.457031 10.15625 6.53125 10.15625 0 L 0 0 L 0 -10.15625 L 20.40625 -10.15625 L 20.40625 0 C 20.40625 3.382812 20.78125 5.921875 21.53125 7.609375 C 22.289062 9.304688 23.609375 10.15625 25.484375 10.15625 C 27.359375 10.15625 28.6875 9.289062 29.46875 7.5625 C 30.257812 5.84375 30.65625 3.320312 30.65625 0 L 30.65625 -20.40625 C 30.65625 -23.0625 30.15625 -25.535156 29.15625 -27.828125 C 28.15625 -30.128906 26.660156 -32.066406 24.671875 -33.640625 L 24.671875 -36.640625 C 25.816406 -36.640625 27.351562 -37.410156 29.28125 -38.953125 C 31.21875 -40.492188 32.671875 -42.273438 33.640625 -44.296875 C 34.609375 -46.316406 35.757812 -48.054688 37.09375 -49.515625 C 37.507812 -49.929688 38.019531 -50.410156 38.625 -50.953125 L 40.796875 -50.953125 Z M 40.796875 0 "/></g></g></g><g fill="#059669" fill-opacity="1"><g transform="translate(241.174438, 231.665334)"><g><path d="M 21.3125 -139.28125 C 21.3125 -132.382812 18.015625 -128.9375 11.421875 -128.9375 C 8.941406 -128.9375 6.992188 -129.539062 5.578125 -130.75 C 4.160156 -131.957031 3.453125 -133.679688 3.453125 -135.921875 C 3.453125 -139.429688 4.414062 -142.726562 6.34375 -145.8125 C 8.28125 -148.894531 10.671875 -150.4375 13.515625 -150.4375 C 15.691406 -150.4375 17.535156 -149.316406 19.046875 -147.078125 C 20.554688 -144.835938 21.3125 -142.238281 21.3125 -139.28125 Z M 18.3125 -138.09375 C 18.3125 -139.425781 17.675781 -140.878906 16.40625 -142.453125 C 14.894531 -144.203125 13.203125 -145.078125 11.328125 -145.078125 C 10.117188 -145.078125 8.957031 -144.519531 7.84375 -143.40625 C 6.726562 -142.289062 6.171875 -140.945312 6.171875 -139.375 C 6.171875 -136.351562 8.40625 -134.84375 12.875 -134.84375 C 14.507812 -134.84375 15.820312 -135.144531 16.8125 -135.75 C 17.8125 -136.351562 18.3125 -137.132812 18.3125 -138.09375 Z M 18.3125 -138.09375 "/></g></g></g><g fill="#059669" fill-opacity="1"><g transform="translate(231.0185, 166.739895)"><g><path d="M 43.703125 0 L 38.265625 0 C 38.265625 10.757812 36.570312 19.4375 33.1875 26.03125 C 30.34375 31.53125 26.414062 35.488281 21.40625 37.90625 C 17.46875 39.832031 12.992188 40.796875 7.984375 40.796875 L 7.984375 37.171875 C 12.390625 37.171875 16.585938 34.484375 20.578125 29.109375 C 25.535156 22.335938 28.015625 13.421875 28.015625 2.359375 L 28.015625 -27.390625 C 28.015625 -30.710938 27.257812 -32.976562 25.75 -34.1875 C 25.75 -34.1875 24.539062 -34.789062 22.125 -36 L 22.125 -39.078125 C 23.269531 -39.078125 24.8125 -39.847656 26.75 -41.390625 C 28.6875 -42.929688 30.132812 -44.695312 31.09375 -46.6875 C 32.0625 -48.6875 33.210938 -50.414062 34.546875 -51.875 C 34.972656 -52.289062 35.488281 -52.800781 36.09375 -53.40625 L 38.265625 -53.40625 L 38.265625 -10.15625 L 43.703125 -10.15625 Z M 43.703125 0 "/></g></g></g><g fill="#059669" fill-opacity="1"><g transform="translate(281.071409, 199.837358)"><g><path d="M 30.65625 -144.90625 C 29.5625 -142.539062 28.617188 -140.90625 27.828125 -140 C 27.046875 -139.09375 26.050781 -138.398438 24.84375 -137.921875 L 6.078125 -129.671875 C 7.046875 -131.898438 7.96875 -133.515625 8.84375 -134.515625 C 9.71875 -135.515625 10.695312 -136.253906 11.78125 -136.734375 Z M 30.65625 -144.90625 "/></g></g></g><g fill="#059669" fill-opacity="1"><g transform="translate(274.633268, 166.739895)"><g><path d="M 28.109375 -58.765625 C 28.109375 -56.640625 27.351562 -54.804688 25.84375 -53.265625 C 24.332031 -51.722656 22.519531 -50.953125 20.40625 -50.953125 C 18.289062 -50.953125 16.472656 -51.722656 14.953125 -53.265625 C 13.441406 -54.804688 12.6875 -56.640625 12.6875 -58.765625 C 12.6875 -60.878906 13.441406 -62.691406 14.953125 -64.203125 C 16.472656 -65.710938 18.289062 -66.46875 20.40625 -66.46875 C 22.519531 -66.46875 24.332031 -65.710938 25.84375 -64.203125 C 27.351562 -62.691406 28.109375 -60.878906 28.109375 -58.765625 Z M 28.109375 -79.15625 C 28.109375 -77.039062 27.351562 -75.226562 25.84375 -73.71875 C 24.332031 -72.207031 22.519531 -71.453125 20.40625 -71.453125 C 18.289062 -71.453125 16.472656 -72.207031 14.953125 -73.71875 C 13.441406 -75.226562 12.6875 -77.039062 12.6875 -79.15625 C 12.6875 -81.269531 13.441406 -83.082031 14.953125 -84.59375 C 16.472656 -86.113281 18.289062 -86.875 20.40625 -86.875 C 22.519531 -86.875 24.332031 -86.113281 25.84375 -84.59375 C 27.351562 -83.082031 28.109375 -81.269531 28.109375 -79.15625 Z M 40.796875 0 C 40.796875 6.53125 39.769531 11.425781 37.71875 14.6875 C 35.238281 18.5 31.160156 20.40625 25.484375 20.40625 C 19.859375 20.40625 15.835938 18.53125 13.421875 14.78125 C 11.242188 11.457031 10.15625 6.53125 10.15625 0 L 0 0 L 0 -10.15625 L 20.40625 -10.15625 L 20.40625 0 C 20.40625 3.382812 20.78125 5.921875 21.53125 7.609375 C 22.289062 9.304688 23.609375 10.15625 25.484375 10.15625 C 27.359375 10.15625 28.6875 9.289062 29.46875 7.5625 C 30.257812 5.84375 30.65625 3.320312 30.65625 0 L 30.65625 -20.40625 C 30.65625 -23.0625 30.15625 -25.535156 29.15625 -27.828125 C 28.15625 -30.128906 26.660156 -32.066406 24.671875 -33.640625 L 24.671875 -36.640625 C 25.816406 -36.640625 27.351562 -37.410156 29.28125 -38.953125 C 31.21875 -40.492188 32.671875 -42.273438 33.640625 -44.296875 C 34.609375 -46.316406 35.757812 -48.054688 37.09375 -49.515625 C 37.507812 -49.929688 38.019531 -50.410156 38.625 -50.953125 L 40.796875 -50.953125 Z M 40.796875 0 "/></g></g></g><g fill="#059669" fill-opacity="1"><g transform="translate(323.325804, 166.739895)"><g/></g></g><g fill="#059669" fill-opacity="1"><g transform="translate(399.493908, 230.395845)"><g><path d="M 30.65625 -144.90625 C 29.5625 -142.539062 28.617188 -140.90625 27.828125 -140 C 27.046875 -139.09375 26.050781 -138.398438 24.84375 -137.921875 L 6.078125 -129.671875 C 7.046875 -131.898438 7.96875 -133.515625 8.84375 -134.515625 C 9.71875 -135.515625 10.695312 -136.253906 11.78125 -136.734375 Z M 30.65625 -144.90625 "/></g></g></g><g fill="#059669" fill-opacity="1"><g transform="translate(368.663385, 166.739895)"><g><path d="M 7.984375 30.65625 L 7.984375 28.46875 C 8.285156 28.050781 8.554688 27.71875 8.796875 27.46875 C 10.179688 26.019531 12.175781 24.660156 14.78125 23.390625 C 16.65625 22.484375 18.410156 21.003906 20.046875 18.953125 C 21.554688 17.078125 22.3125 15.597656 22.3125 14.515625 L 25.296875 14.515625 C 26.566406 16.023438 27.925781 17.234375 29.375 18.140625 C 31.976562 19.648438 35.03125 20.40625 38.53125 20.40625 L 69.09375 20.40625 C 71.9375 20.40625 74.351562 19.421875 76.34375 17.453125 C 78.34375 15.492188 79.34375 13.0625 79.34375 10.15625 L 79.34375 -11.78125 C 79.34375 -14.863281 78.554688 -17.796875 76.984375 -20.578125 C 75.898438 -22.453125 74.691406 -23.9375 73.359375 -25.03125 L 73.359375 -28.015625 C 74.503906 -28.015625 76.046875 -28.785156 77.984375 -30.328125 C 79.921875 -31.867188 81.367188 -33.648438 82.328125 -35.671875 C 83.296875 -37.703125 84.445312 -39.441406 85.78125 -40.890625 C 86.207031 -41.316406 86.722656 -41.832031 87.328125 -42.4375 L 89.5 -42.4375 L 89.5 10.15625 C 89.5 16.195312 87.59375 21.125 83.78125 24.9375 C 79.976562 28.75 75.082031 30.65625 69.09375 30.65625 Z M 56.40625 -48.515625 C 56.40625 -46.398438 55.648438 -44.582031 54.140625 -43.0625 C 52.628906 -41.550781 50.8125 -40.796875 48.6875 -40.796875 C 46.570312 -40.796875 44.757812 -41.550781 43.25 -43.0625 C 41.738281 -44.582031 40.984375 -46.398438 40.984375 -48.515625 C 40.984375 -50.628906 41.738281 -52.457031 43.25 -54 C 44.757812 -55.539062 46.570312 -56.3125 48.6875 -56.3125 C 50.8125 -56.3125 52.628906 -55.539062 54.140625 -54 C 55.648438 -52.457031 56.40625 -50.628906 56.40625 -48.515625 Z M 56.40625 -48.515625 "/></g></g></g><g fill="#059669" fill-opacity="1"><g transform="translate(466.048485, 166.739895)"><g><path d="M 46.96875 -153.875 C 46.96875 -148.4375 45.609375 -144.414062 42.890625 -141.8125 C 40.535156 -139.632812 37.179688 -138.546875 32.828125 -138.546875 L 20.859375 -138.546875 C 19.097656 -138.546875 17.582031 -138.015625 16.3125 -136.953125 C 15.050781 -135.898438 14.023438 -134.4375 13.234375 -132.5625 L 10.25 -132.5625 C 10.25 -138.070312 11.609375 -142.066406 14.328125 -144.546875 C 16.617188 -146.660156 19.972656 -147.71875 24.390625 -147.71875 L 36.359375 -147.71875 C 38.109375 -147.71875 39.617188 -148.273438 40.890625 -149.390625 C 42.160156 -150.503906 43.191406 -152 43.984375 -153.875 Z M 36.359375 -115.25 C 34.785156 -114.039062 33.578125 -112.679688 32.734375 -111.171875 C 31.222656 -108.566406 30.46875 -105.515625 30.46875 -102.015625 L 30.46875 -98.296875 C 28.226562 -98.296875 26.171875 -97.734375 24.296875 -96.609375 C 22.421875 -95.492188 21.0625 -94.03125 20.21875 -92.21875 L 20.21875 -132.5625 L 22.390625 -132.5625 C 22.816406 -132.257812 23.148438 -132.019531 23.390625 -131.84375 C 24.847656 -130.394531 26.179688 -128.398438 27.390625 -125.859375 C 28.296875 -123.921875 29.804688 -122.140625 31.921875 -120.515625 C 33.734375 -119.003906 35.210938 -118.25 36.359375 -118.25 Z M 53.5 0 L 20.21875 0 L 20.21875 -80.15625 C 20.21875 -84.632812 21.242188 -88.304688 23.296875 -91.171875 C 25.359375 -94.046875 28.382812 -95.484375 32.375 -95.484375 C 35.695312 -95.484375 38.382812 -93.910156 40.4375 -90.765625 C 41.769531 -88.710938 42.738281 -86.175781 43.34375 -83.15625 L 42.4375 -82.421875 C 41.101562 -84.117188 40.046875 -85.269531 39.265625 -85.875 C 37.816406 -87.195312 36.242188 -87.859375 34.546875 -87.859375 C 32.734375 -87.859375 31.492188 -86.53125 30.828125 -83.875 C 30.585938 -82.664062 30.46875 -81.425781 30.46875 -80.15625 L 30.46875 -10.421875 C 31.800781 -10.722656 32.976562 -11.570312 34 -12.96875 C 34.726562 -14 35.425781 -15.054688 36.09375 -16.140625 L 39.171875 -16.140625 C 39.171875 -14.992188 39.941406 -13.453125 41.484375 -11.515625 C 43.023438 -9.578125 44.789062 -8.125 46.78125 -7.15625 C 48.78125 -6.195312 50.503906 -5.050781 51.953125 -3.71875 C 52.378906 -3.289062 52.894531 -2.773438 53.5 -2.171875 Z M 53.5 0 "/></g></g></g><g fill="#059669" fill-opacity="1"><g transform="translate(539.949112, 231.665334)"><g><path d="M 21.3125 -139.28125 C 21.3125 -132.382812 18.015625 -128.9375 11.421875 -128.9375 C 8.941406 -128.9375 6.992188 -129.539062 5.578125 -130.75 C 4.160156 -131.957031 3.453125 -133.679688 3.453125 -135.921875 C 3.453125 -139.429688 4.414062 -142.726562 6.34375 -145.8125 C 8.28125 -148.894531 10.671875 -150.4375 13.515625 -150.4375 C 15.691406 -150.4375 17.535156 -149.316406 19.046875 -147.078125 C 20.554688 -144.835938 21.3125 -142.238281 21.3125 -139.28125 Z M 18.3125 -138.09375 C 18.3125 -139.425781 17.675781 -140.878906 16.40625 -142.453125 C 14.894531 -144.203125 13.203125 -145.078125 11.328125 -145.078125 C 10.117188 -145.078125 8.957031 -144.519531 7.84375 -143.40625 C 6.726562 -142.289062 6.171875 -140.945312 6.171875 -139.375 C 6.171875 -136.351562 8.40625 -134.84375 12.875 -134.84375 C 14.507812 -134.84375 15.820312 -135.144531 16.8125 -135.75 C 17.8125 -136.351562 18.3125 -137.132812 18.3125 -138.09375 Z M 18.3125 -138.09375 "/></g></g></g><g fill="#059669" fill-opacity="1"><g transform="translate(529.793147, 166.739895)"><g><path d="M 43.703125 0 L 38.265625 0 C 38.265625 10.757812 36.570312 19.4375 33.1875 26.03125 C 30.34375 31.53125 26.414062 35.488281 21.40625 37.90625 C 17.46875 39.832031 12.992188 40.796875 7.984375 40.796875 L 7.984375 37.171875 C 12.390625 37.171875 16.585938 34.484375 20.578125 29.109375 C 25.535156 22.335938 28.015625 13.421875 28.015625 2.359375 L 28.015625 -27.390625 C 28.015625 -30.710938 27.257812 -32.976562 25.75 -34.1875 C 25.75 -34.1875 24.539062 -34.789062 22.125 -36 L 22.125 -39.078125 C 23.269531 -39.078125 24.8125 -39.847656 26.75 -41.390625 C 28.6875 -42.929688 30.132812 -44.695312 31.09375 -46.6875 C 32.0625 -48.6875 33.210938 -50.414062 34.546875 -51.875 C 34.972656 -52.289062 35.488281 -52.800781 36.09375 -53.40625 L 38.265625 -53.40625 L 38.265625 -10.15625 L 43.703125 -10.15625 Z M 43.703125 0 "/></g></g></g><g fill="#059669" fill-opacity="1"><g transform="translate(580.390078, 186.870405)"><g><path d="M 31.375 -137.015625 L 28.921875 -132.203125 C 26.929688 -132.441406 25.179688 -132.925781 23.671875 -133.65625 C 20.648438 -129.90625 17.957031 -127.394531 15.59375 -126.125 C 13.84375 -125.164062 11.816406 -124.6875 9.515625 -124.6875 C 8.492188 -124.6875 7.195312 -125.164062 5.625 -126.125 C 5.132812 -126.488281 4.46875 -126.972656 3.625 -127.578125 C 6.644531 -128.066406 9.878906 -129.097656 13.328125 -130.671875 C 15.328125 -131.578125 17.894531 -132.992188 21.03125 -134.921875 C 19.40625 -136.191406 18.273438 -137.265625 17.640625 -138.140625 C 17.003906 -139.023438 16.6875 -140.097656 16.6875 -141.359375 C 16.6875 -143.484375 17.515625 -145.628906 19.171875 -147.796875 C 20.835938 -149.972656 22.671875 -151.0625 24.671875 -151.0625 C 27.867188 -151.0625 29.46875 -148.976562 29.46875 -144.8125 C 29.46875 -143.71875 29.347656 -142.78125 29.109375 -142 C 29.109375 -142 28.472656 -140.640625 27.203125 -137.921875 C 27.566406 -137.554688 28.234375 -137.296875 29.203125 -137.140625 C 30.171875 -136.992188 30.894531 -136.953125 31.375 -137.015625 Z M 24.9375 -142 C 24.9375 -143.144531 24.554688 -144.171875 23.796875 -145.078125 C 23.046875 -145.984375 22.15625 -146.4375 21.125 -146.4375 C 20.40625 -146.4375 19.984375 -145.957031 19.859375 -145 C 19.859375 -144.082031 20.113281 -143.289062 20.625 -142.625 C 21.144531 -141.96875 22.429688 -140.941406 24.484375 -139.546875 C 24.785156 -140.515625 24.9375 -141.332031 24.9375 -142 Z M 24.9375 -142 "/></g></g></g><g fill="#059669" fill-opacity="1"><g transform="translate(573.407862, 166.739895)"><g><path d="M 56.578125 0 L 50.953125 0 C 50.953125 6.289062 49.625 11.1875 46.96875 14.6875 C 43.945312 18.5 39.566406 20.40625 33.828125 20.40625 C 28.078125 20.40625 23.722656 18.53125 20.765625 14.78125 C 17.984375 11.269531 16.59375 6.34375 16.59375 0 L 0 0 L 0 -10.15625 L 26.75 -10.15625 L 26.75 0 C 26.75 3.144531 27.398438 5.625 28.703125 7.4375 C 30.003906 9.25 31.710938 10.15625 33.828125 10.15625 C 35.753906 10.15625 37.394531 9.234375 38.75 7.390625 C 40.113281 5.546875 40.796875 3.082031 40.796875 0 L 40.796875 -20.40625 L 10.15625 -20.40625 L 10.15625 -29.109375 C 10.15625 -34.484375 10.925781 -39.164062 12.46875 -43.15625 C 14.007812 -47.144531 16.65625 -50.773438 20.40625 -54.046875 C 23.0625 -56.335938 26.597656 -58.453125 31.015625 -60.390625 C 36.992188 -63.046875 40.195312 -64.523438 40.625 -64.828125 C 43.769531 -66.585938 45.851562 -68.796875 46.875 -71.453125 L 50.953125 -71.453125 L 50.953125 -10.15625 L 56.578125 -10.15625 Z M 40.796875 -30.65625 L 40.796875 -53.6875 C 37.421875 -52.414062 34.71875 -51.328125 32.6875 -50.421875 C 30.664062 -49.515625 28.835938 -48.273438 27.203125 -46.703125 C 22.671875 -42.347656 20.40625 -37 20.40625 -30.65625 Z M 48.515625 -86.140625 C 48.515625 -84.023438 47.757812 -82.210938 46.25 -80.703125 C 44.738281 -79.191406 42.921875 -78.4375 40.796875 -78.4375 C 38.679688 -78.4375 36.867188 -79.191406 35.359375 -80.703125 C 33.847656 -82.210938 33.09375 -84.023438 33.09375 -86.140625 C 33.09375 -88.253906 33.847656 -90.066406 35.359375 -91.578125 C 36.867188 -93.085938 38.679688 -93.84375 40.796875 -93.84375 C 42.921875 -93.84375 44.738281 -93.085938 46.25 -91.578125 C 47.757812 -90.066406 48.515625 -88.253906 48.515625 -86.140625 Z M 28.109375 -86.140625 C 28.109375 -84.023438 27.351562 -82.210938 25.84375 -80.703125 C 24.332031 -79.191406 22.519531 -78.4375 20.40625 -78.4375 C 18.289062 -78.4375 16.472656 -79.191406 14.953125 -80.703125 C 13.441406 -82.210938 12.6875 -84.023438 12.6875 -86.140625 C 12.6875 -88.253906 13.441406 -90.066406 14.953125 -91.578125 C 16.472656 -93.085938 18.289062 -93.84375 20.40625 -93.84375 C 22.519531 -93.84375 24.332031 -93.085938 25.84375 -91.578125 C 27.351562 -90.066406 28.109375 -88.253906 28.109375 -86.140625 Z M 28.109375 -86.140625 "/></g></g></g><g fill="#059669" fill-opacity="1"><g transform="translate(634.069685, 152.503439)"><g><path d="M 21.3125 -139.28125 C 21.3125 -132.382812 18.015625 -128.9375 11.421875 -128.9375 C 8.941406 -128.9375 6.992188 -129.539062 5.578125 -130.75 C 4.160156 -131.957031 3.453125 -133.679688 3.453125 -135.921875 C 3.453125 -139.429688 4.414062 -142.726562 6.34375 -145.8125 C 8.28125 -148.894531 10.671875 -150.4375 13.515625 -150.4375 C 15.691406 -150.4375 17.535156 -149.316406 19.046875 -147.078125 C 20.554688 -144.835938 21.3125 -142.238281 21.3125 -139.28125 Z M 18.3125 -138.09375 C 18.3125 -139.425781 17.675781 -140.878906 16.40625 -142.453125 C 14.894531 -144.203125 13.203125 -145.078125 11.328125 -145.078125 C 10.117188 -145.078125 8.957031 -144.519531 7.84375 -143.40625 C 6.726562 -142.289062 6.171875 -140.945312 6.171875 -139.375 C 6.171875 -136.351562 8.40625 -134.84375 12.875 -134.84375 C 14.507812 -134.84375 15.820312 -135.144531 16.8125 -135.75 C 17.8125 -136.351562 18.3125 -137.132812 18.3125 -138.09375 Z M 18.3125 -138.09375 "/></g></g></g><g fill="#059669" fill-opacity="1"><g transform="translate(629.989181, 166.739895)"><g><path d="M 13.234375 -10.15625 L 13.234375 -78.609375 C 13.234375 -80.546875 12.992188 -82.148438 12.515625 -83.421875 C 11.847656 -85.296875 10.695312 -86.234375 9.0625 -86.234375 C 7.375 -86.234375 5.804688 -85.628906 4.359375 -84.421875 C 3.804688 -83.929688 2.773438 -82.722656 1.265625 -80.796875 L 0.359375 -81.515625 C 0.960938 -84.660156 1.898438 -87.203125 3.171875 -89.140625 C 5.222656 -92.273438 7.941406 -93.84375 11.328125 -93.84375 C 15.203125 -93.84375 18.226562 -92.363281 20.40625 -89.40625 C 22.394531 -86.625 23.390625 -83.023438 23.390625 -78.609375 L 23.390625 0 L 0 0 L 0 -10.15625 Z M 23.390625 -90.59375 C 22.546875 -92.34375 21.1875 -93.789062 19.3125 -94.9375 C 17.4375 -96.082031 15.410156 -96.65625 13.234375 -96.65625 L 13.234375 -102.015625 C 13.234375 -104.671875 12.734375 -107.144531 11.734375 -109.4375 C 10.742188 -111.738281 9.28125 -113.675781 7.34375 -115.25 L 7.34375 -118.25 C 8.4375 -118.25 9.945312 -119.019531 11.875 -120.5625 C 13.8125 -122.101562 15.265625 -123.882812 16.234375 -125.90625 C 17.203125 -127.925781 18.347656 -129.664062 19.671875 -131.125 C 20.097656 -131.539062 20.644531 -132.019531 21.3125 -132.5625 L 23.390625 -132.5625 Z M 23.390625 -90.59375 "/></g></g></g><g fill="#059669" fill-opacity="1"><g transform="translate(661.362759, 166.739895)"><g><path d="M 24.03125 -115.25 C 22.519531 -114.039062 21.34375 -112.679688 20.5 -111.171875 C 18.925781 -108.566406 18.140625 -105.515625 18.140625 -102.015625 L 18.140625 -98.296875 C 15.898438 -98.296875 13.859375 -97.734375 12.015625 -96.609375 C 10.171875 -95.492188 8.828125 -94.03125 7.984375 -92.21875 L 7.984375 -132.5625 L 10.15625 -132.5625 C 10.582031 -132.257812 10.882812 -132.019531 11.0625 -131.84375 C 12.570312 -130.394531 13.929688 -128.398438 15.140625 -125.859375 C 16.046875 -123.921875 17.53125 -122.140625 19.59375 -120.515625 C 21.457031 -119.003906 22.9375 -118.25 24.03125 -118.25 Z M 41.171875 0 L 7.984375 0 L 7.984375 -80.15625 C 7.984375 -84.632812 9.007812 -88.304688 11.0625 -91.171875 C 13.113281 -94.046875 16.109375 -95.484375 20.046875 -95.484375 C 23.429688 -95.484375 26.117188 -93.910156 28.109375 -90.765625 C 29.441406 -88.710938 30.441406 -86.175781 31.109375 -83.15625 L 30.109375 -82.421875 C 28.773438 -84.117188 27.742188 -85.269531 27.015625 -85.875 C 25.503906 -87.195312 23.9375 -87.859375 22.3125 -87.859375 C 20.4375 -87.859375 19.195312 -86.53125 18.59375 -83.875 C 18.289062 -82.664062 18.140625 -81.425781 18.140625 -80.15625 L 18.140625 -10.421875 C 19.460938 -10.722656 20.671875 -11.570312 21.765625 -12.96875 C 22.429688 -14 23.125 -15.054688 23.84375 -16.140625 L 26.84375 -16.140625 C 26.84375 -14.992188 27.613281 -13.453125 29.15625 -11.515625 C 30.695312 -9.578125 32.476562 -8.125 34.5 -7.15625 C 36.53125 -6.195312 38.269531 -5.050781 39.71875 -3.71875 C 40.132812 -3.289062 40.617188 -2.773438 41.171875 -2.171875 Z M 41.171875 0 "/></g></g></g><g fill="#059669" fill-opacity="1"><g transform="translate(710.5087, 166.739895)"><g/></g></g><g fill="#059669" fill-opacity="1"><g transform="translate(785.860692, 153.138197)"><g><path d="M 28.75 53.40625 C 27.71875 55.757812 26.789062 57.375 25.96875 58.25 C 25.15625 59.132812 24.175781 59.847656 23.03125 60.390625 L 4.265625 68.640625 C 5.171875 66.398438 6.0625 64.765625 6.9375 63.734375 C 7.8125 62.710938 8.820312 61.988281 9.96875 61.5625 Z M 28.75 53.40625 "/></g></g></g><g fill="#059669" fill-opacity="1"><g transform="translate(755.846281, 166.739895)"><g><path d="M 89.59375 -90.59375 C 88.738281 -92.34375 87.359375 -93.789062 85.453125 -94.9375 C 83.554688 -96.082031 81.519531 -96.65625 79.34375 -96.65625 L 79.34375 -102.015625 C 79.34375 -104.671875 78.859375 -107.144531 77.890625 -109.4375 C 76.921875 -111.738281 75.441406 -113.675781 73.453125 -115.25 L 73.453125 -118.25 C 74.597656 -118.25 76.132812 -119.019531 78.0625 -120.5625 C 80 -122.101562 81.453125 -123.882812 82.421875 -125.90625 C 83.390625 -127.925781 84.539062 -129.664062 85.875 -131.125 C 86.289062 -131.539062 86.800781 -132.019531 87.40625 -132.5625 L 89.59375 -132.5625 Z M 95.03125 0 L 89.59375 0 L 89.59375 10.15625 C 89.59375 16.195312 87.6875 21.125 83.875 24.9375 C 80.0625 28.75 75.164062 30.65625 69.1875 30.65625 L 7.984375 30.65625 L 7.984375 28.46875 C 8.285156 28.050781 8.554688 27.71875 8.796875 27.46875 C 10.179688 26.019531 12.175781 24.660156 14.78125 23.390625 C 16.65625 22.484375 18.410156 21.003906 20.046875 18.953125 C 21.554688 17.078125 22.3125 15.597656 22.3125 14.515625 L 25.296875 14.515625 C 26.566406 16.023438 27.925781 17.234375 29.375 18.140625 C 31.976562 19.648438 35.03125 20.40625 38.53125 20.40625 L 69.1875 20.40625 C 72.03125 20.40625 74.429688 19.421875 76.390625 17.453125 C 78.359375 15.492188 79.34375 13.0625 79.34375 10.15625 L 79.34375 -78.609375 C 79.34375 -80.546875 79.097656 -82.148438 78.609375 -83.421875 C 77.953125 -85.296875 76.835938 -86.234375 75.265625 -86.234375 C 73.566406 -86.234375 71.992188 -85.628906 70.546875 -84.421875 C 69.941406 -83.929688 68.914062 -82.722656 67.46875 -80.796875 L 66.46875 -81.515625 C 67.132812 -84.660156 68.101562 -87.203125 69.375 -89.140625 C 71.363281 -92.273438 74.050781 -93.84375 77.4375 -93.84375 C 81.300781 -93.84375 84.320312 -92.363281 86.5 -89.40625 C 88.5625 -86.625 89.59375 -83.023438 89.59375 -78.609375 L 89.59375 -10.15625 L 95.03125 -10.15625 Z M 95.03125 0 "/></g></g></g><g fill="#059669" fill-opacity="1"><g transform="translate(857.493359, 17.393225)"><g><path d="M 28.75 53.40625 C 27.71875 55.757812 26.789062 57.375 25.96875 58.25 C 25.15625 59.132812 24.175781 59.847656 23.03125 60.390625 L 4.265625 68.640625 C 5.171875 66.398438 6.0625 64.765625 6.9375 63.734375 C 7.8125 62.710938 8.820312 61.988281 9.96875 61.5625 Z M 28.75 53.40625 "/></g></g></g><g fill="#059669" fill-opacity="1"><g transform="translate(853.503498, 200.834809)"><g><path d="M 31.28125 -144.90625 C 31.28125 -141.21875 30.707031 -138.523438 29.5625 -136.828125 C 28.414062 -135.140625 26.570312 -134.296875 24.03125 -134.296875 C 23.125 -134.296875 22.382812 -134.367188 21.8125 -134.515625 C 21.238281 -134.671875 20.46875 -135.109375 19.5 -135.828125 C 19.195312 -134.203125 18.316406 -132.753906 16.859375 -131.484375 C 15.410156 -130.210938 13.8125 -129.578125 12.0625 -129.578125 C 8.4375 -129.578125 6.625 -131.84375 6.625 -136.375 C 6.625 -137.40625 6.742188 -138.613281 6.984375 -140 C 7.097656 -140.664062 7.335938 -141.722656 7.703125 -143.171875 L 9.4375 -143.453125 C 9.4375 -140.847656 9.738281 -138.988281 10.34375 -137.875 C 10.945312 -136.757812 11.789062 -136.203125 12.875 -136.203125 C 14.507812 -136.203125 15.796875 -137.09375 16.734375 -138.875 C 17.671875 -140.65625 18.316406 -143.390625 18.671875 -147.078125 L 19.953125 -147.53125 C 20.253906 -146.082031 20.554688 -144.660156 20.859375 -143.265625 C 21.398438 -141.640625 22.457031 -140.828125 24.03125 -140.828125 C 26.019531 -140.828125 27.316406 -141.789062 27.921875 -143.71875 C 28.285156 -144.875 28.46875 -146.992188 28.46875 -150.078125 L 30.109375 -150.796875 C 30.523438 -149.222656 30.820312 -148.070312 31 -147.34375 C 31.1875 -146.625 31.28125 -145.8125 31.28125 -144.90625 Z M 31.28125 -144.90625 "/></g></g></g><g fill="#059669" fill-opacity="1"><g transform="translate(850.78318, 166.739894)"><g><path d="M 28.109375 -58.765625 C 28.109375 -56.640625 27.351562 -54.804688 25.84375 -53.265625 C 24.332031 -51.722656 22.519531 -50.953125 20.40625 -50.953125 C 18.289062 -50.953125 16.472656 -51.722656 14.953125 -53.265625 C 13.441406 -54.804688 12.6875 -56.640625 12.6875 -58.765625 C 12.6875 -60.878906 13.441406 -62.691406 14.953125 -64.203125 C 16.472656 -65.710938 18.289062 -66.46875 20.40625 -66.46875 C 22.519531 -66.46875 24.332031 -65.710938 25.84375 -64.203125 C 27.351562 -62.691406 28.109375 -60.878906 28.109375 -58.765625 Z M 28.109375 -79.15625 C 28.109375 -77.039062 27.351562 -75.226562 25.84375 -73.71875 C 24.332031 -72.207031 22.519531 -71.453125 20.40625 -71.453125 C 18.289062 -71.453125 16.472656 -72.207031 14.953125 -73.71875 C 13.441406 -75.226562 12.6875 -77.039062 12.6875 -79.15625 C 12.6875 -81.269531 13.441406 -83.082031 14.953125 -84.59375 C 16.472656 -86.113281 18.289062 -86.875 20.40625 -86.875 C 22.519531 -86.875 24.332031 -86.113281 25.84375 -84.59375 C 27.351562 -83.082031 28.109375 -81.269531 28.109375 -79.15625 Z M 40.796875 0 C 40.796875 6.53125 39.769531 11.425781 37.71875 14.6875 C 35.238281 18.5 31.160156 20.40625 25.484375 20.40625 C 19.859375 20.40625 15.835938 18.53125 13.421875 14.78125 C 11.242188 11.457031 10.15625 6.53125 10.15625 0 L 0 0 L 0 -10.15625 L 20.40625 -10.15625 L 20.40625 0 C 20.40625 3.382812 20.78125 5.921875 21.53125 7.609375 C 22.289062 9.304688 23.609375 10.15625 25.484375 10.15625 C 27.359375 10.15625 28.6875 9.289062 29.46875 7.5625 C 30.257812 5.84375 30.65625 3.320312 30.65625 0 L 30.65625 -20.40625 C 30.65625 -23.0625 30.15625 -25.535156 29.15625 -27.828125 C 28.15625 -30.128906 26.660156 -32.066406 24.671875 -33.640625 L 24.671875 -36.640625 C 25.816406 -36.640625 27.351562 -37.410156 29.28125 -38.953125 C 31.21875 -40.492188 32.671875 -42.273438 33.640625 -44.296875 C 34.609375 -46.316406 35.757812 -48.054688 37.09375 -49.515625 C 37.507812 -49.929688 38.019531 -50.410156 38.625 -50.953125 L 40.796875 -50.953125 Z M 40.796875 0 "/></g></g></g><g fill="#059669" fill-opacity="1"><g transform="translate(904.735093, 233.297542)"><g><path d="M 30.65625 -144.90625 C 29.5625 -142.539062 28.617188 -140.90625 27.828125 -140 C 27.046875 -139.09375 26.050781 -138.398438 24.84375 -137.921875 L 6.078125 -129.671875 C 7.046875 -131.898438 7.96875 -133.515625 8.84375 -134.515625 C 9.71875 -135.515625 10.695312 -136.253906 11.78125 -136.734375 Z M 30.65625 -144.90625 "/></g></g></g><g fill="#059669" fill-opacity="1"><g transform="translate(899.475743, 166.739894)"><g><path d="M 38.453125 0 C 38.453125 10.820312 36.726562 19.5 33.28125 26.03125 C 30.5 31.46875 26.539062 35.425781 21.40625 37.90625 C 17.414062 39.832031 12.941406 40.796875 7.984375 40.796875 L 7.984375 37.171875 C 10.640625 37.171875 13.390625 36.023438 16.234375 33.734375 C 19.679688 30.953125 22.429688 27.171875 24.484375 22.390625 C 26.960938 16.585938 28.203125 9.910156 28.203125 2.359375 L 28.203125 -27.390625 C 28.203125 -30.710938 27.445312 -32.976562 25.9375 -34.1875 C 24.664062 -34.789062 23.457031 -35.394531 22.3125 -36 L 22.3125 -39.078125 C 23.457031 -39.078125 24.992188 -39.847656 26.921875 -41.390625 C 28.859375 -42.929688 30.296875 -44.695312 31.234375 -46.6875 C 32.171875 -48.6875 33.304688 -50.414062 34.640625 -51.875 C 35.054688 -52.289062 35.597656 -52.800781 36.265625 -53.40625 L 38.453125 -53.40625 Z M 38.453125 0 "/></g></g></g><g fill="#059669" fill-opacity="1"><g transform="translate(956.238725, 235.74585)"><g><path d="M 30.65625 -144.90625 C 29.5625 -142.539062 28.617188 -140.90625 27.828125 -140 C 27.046875 -139.09375 26.050781 -138.398438 24.84375 -137.921875 L 6.078125 -129.671875 C 7.046875 -131.898438 7.96875 -133.515625 8.84375 -134.515625 C 9.71875 -135.515625 10.695312 -136.253906 11.78125 -136.734375 Z M 30.65625 -144.90625 "/></g></g></g><g fill="#059669" fill-opacity="1"><g transform="translate(945.810776, 166.739894)"><g><path d="M 48.78125 0 C 48.78125 10.757812 47.054688 19.4375 43.609375 26.03125 C 40.710938 31.53125 36.722656 35.488281 31.640625 37.90625 C 27.648438 39.832031 23.148438 40.796875 18.140625 40.796875 L 18.140625 37.171875 C 20.796875 37.171875 23.601562 36.023438 26.5625 33.734375 C 29.894531 31.066406 32.617188 27.285156 34.734375 22.390625 C 37.265625 16.523438 38.53125 9.847656 38.53125 2.359375 L 38.53125 0 L 7.984375 0 L 7.984375 -8.703125 C 7.984375 -14.085938 8.738281 -18.773438 10.25 -22.765625 C 11.757812 -26.753906 14.390625 -30.378906 18.140625 -33.640625 C 20.796875 -35.941406 24.332031 -38.054688 28.75 -39.984375 C 34.789062 -42.648438 38.023438 -44.132812 38.453125 -44.4375 C 41.535156 -46.1875 43.585938 -48.359375 44.609375 -50.953125 L 48.78125 -50.953125 Z M 38.53125 -10.15625 L 38.53125 -33.28125 C 35.144531 -32.007812 32.441406 -30.921875 30.421875 -30.015625 C 28.398438 -29.109375 26.570312 -27.867188 24.9375 -26.296875 C 20.40625 -21.941406 18.140625 -16.5625 18.140625 -10.15625 Z M 38.53125 -10.15625 "/></g></g></g><g fill="#059669" fill-opacity="1"><g transform="translate(1002.482686, 166.739894)"><g><path d="M 79.984375 -34.1875 C 78.046875 -32.1875 76.503906 -30.644531 75.359375 -29.5625 C 71.847656 -26.351562 69.15625 -24.507812 67.28125 -24.03125 C 67.820312 -23 68.242188 -22.148438 68.546875 -21.484375 C 69.453125 -19.367188 69.90625 -17.617188 69.90625 -16.234375 C 69.90625 -15.742188 69.816406 -15.195312 69.640625 -14.59375 C 68.671875 -11.875 66.40625 -10.03125 62.84375 -9.0625 C 61.6875 -8.820312 60.023438 -8.613281 57.859375 -8.4375 C 58.578125 -7.46875 59.148438 -6.710938 59.578125 -6.171875 C 60.722656 -4.296875 61.296875 -2.660156 61.296875 -1.265625 C 61.296875 0.847656 60.597656 2.507812 59.203125 3.71875 C 57.816406 4.925781 55.734375 5.53125 52.953125 5.53125 C 52.710938 5.53125 52.53125 5.53125 52.40625 5.53125 C 52.289062 5.53125 52.140625 5.5 51.953125 5.4375 C 51.953125 5.4375 51.378906 6.375 50.234375 8.25 C 48.898438 10.363281 47.238281 12.78125 45.25 15.5 C 42.832031 18.882812 40.441406 21.910156 38.078125 24.578125 C 35.054688 28.015625 31.460938 31.757812 27.296875 35.8125 C 23.785156 39.082031 20.582031 41.984375 17.6875 44.515625 C 14.957031 46.878906 13.566406 48.0625 13.515625 48.0625 L 6.890625 48.0625 C 6.953125 48.0625 8.25 46.109375 10.78125 42.203125 C 13.320312 38.304688 16.015625 33.941406 18.859375 29.109375 C 22.484375 23.003906 25.265625 17.941406 27.203125 13.921875 C 29.140625 9.898438 31.4375 4.535156 34.09375 -2.171875 C 35 -4.410156 36.148438 -7.4375 37.546875 -11.25 C 35.242188 -12.332031 33.488281 -13.207031 32.28125 -13.875 C 28.53125 -15.988281 26.296875 -17.894531 25.578125 -19.59375 C 27.203125 -20.851562 28.46875 -21.878906 29.375 -22.671875 C 32.09375 -24.847656 33.953125 -26.445312 34.953125 -27.46875 C 35.953125 -28.5 37.023438 -29.921875 38.171875 -31.734375 C 38.535156 -32.273438 39.050781 -33.09375 39.71875 -34.1875 C 39.050781 -35.21875 38.535156 -36.003906 38.171875 -36.546875 C 36.898438 -38.535156 35.859375 -39.96875 35.046875 -40.84375 C 34.234375 -41.726562 32.375 -43.316406 29.46875 -45.609375 C 28.5625 -46.335938 27.265625 -47.363281 25.578125 -48.6875 C 26.296875 -50.382812 28.5 -52.289062 32.1875 -54.40625 C 33.394531 -55.132812 35.179688 -56.007812 37.546875 -57.03125 C 36.085938 -60.84375 34.9375 -63.867188 34.09375 -66.109375 C 31.5 -72.691406 29.171875 -78.097656 27.109375 -82.328125 C 25.054688 -86.566406 22.335938 -91.585938 18.953125 -97.390625 C 16.835938 -100.953125 14.085938 -105.394531 10.703125 -110.71875 C 8.222656 -114.519531 6.953125 -116.421875 6.890625 -116.421875 L 13.515625 -116.421875 C 14.835938 -115.273438 16.164062 -114.097656 17.5 -112.890625 C 21.007812 -109.804688 24.242188 -106.90625 27.203125 -104.1875 C 31.429688 -100.070312 35.054688 -96.296875 38.078125 -92.859375 C 40.503906 -90.078125 42.894531 -87.082031 45.25 -83.875 C 46.695312 -81.820312 48.328125 -79.4375 50.140625 -76.71875 C 50.679688 -75.75 51.285156 -74.78125 51.953125 -73.8125 C 52.378906 -73.875 52.710938 -73.90625 52.953125 -73.90625 C 55.003906 -73.90625 56.695312 -73.539062 58.03125 -72.8125 C 60.207031 -71.664062 61.296875 -69.734375 61.296875 -67.015625 C 61.296875 -65.554688 60.722656 -63.953125 59.578125 -62.203125 C 59.210938 -61.597656 58.640625 -60.8125 57.859375 -59.84375 C 60.023438 -59.726562 61.6875 -59.546875 62.84375 -59.296875 C 66.40625 -58.390625 68.671875 -56.546875 69.640625 -53.765625 C 69.816406 -53.222656 69.90625 -52.648438 69.90625 -52.046875 C 69.90625 -50.535156 69.484375 -48.8125 68.640625 -46.875 C 68.335938 -46.207031 67.882812 -45.332031 67.28125 -44.25 C 69.15625 -43.820312 71.847656 -42.007812 75.359375 -38.8125 C 76.441406 -37.78125 77.984375 -36.238281 79.984375 -34.1875 Z M 74.984375 -34.1875 C 74.023438 -35.21875 73.269531 -36.003906 72.71875 -36.546875 C 70.84375 -38.359375 69.332031 -39.582031 68.1875 -40.21875 C 67.039062 -40.851562 65.710938 -41.378906 64.203125 -41.796875 C 63.660156 -41.921875 62.90625 -42.101562 61.9375 -42.34375 C 62.957031 -43.675781 63.742188 -44.734375 64.296875 -45.515625 C 65.921875 -47.929688 66.734375 -49.835938 66.734375 -51.234375 C 66.921875 -53.410156 65.257812 -55.007812 61.75 -56.03125 C 59.332031 -56.695312 56.367188 -57.03125 52.859375 -57.03125 C 52.078125 -57.03125 51.472656 -57.03125 51.046875 -57.03125 C 50.628906 -57.03125 50.328125 -57 50.140625 -56.9375 L 54.3125 -60.84375 C 56.675781 -63.320312 57.859375 -65.285156 57.859375 -66.734375 C 57.859375 -68.003906 57.3125 -68.910156 56.21875 -69.453125 C 55.132812 -70.003906 53.171875 -70.28125 50.328125 -70.28125 C 48.328125 -73.414062 46.722656 -75.890625 45.515625 -77.703125 C 41.828125 -83.148438 38.65625 -87.472656 36 -90.671875 C 32.1875 -95.210938 27.378906 -100.171875 21.578125 -105.546875 C 16.140625 -110.628906 13.175781 -113.078125 12.6875 -112.890625 C 13.65625 -111.316406 14.6875 -109.773438 15.78125 -108.265625 C 18.195312 -104.578125 20.398438 -101.101562 22.390625 -97.84375 C 25.171875 -93.363281 27.40625 -89.476562 29.09375 -86.1875 C 30.789062 -82.894531 32.726562 -78.5 34.90625 -73 C 36.414062 -69.25 37.988281 -65.132812 39.625 -60.65625 C 40.226562 -58.789062 40.863281 -56.945312 41.53125 -55.125 C 39.175781 -54.164062 37.421875 -53.410156 36.265625 -52.859375 C 32.703125 -51.171875 30.921875 -49.992188 30.921875 -49.328125 C 30.921875 -49.023438 31.34375 -48.507812 32.1875 -47.78125 C 35.15625 -45.363281 36.941406 -43.820312 37.546875 -43.15625 C 39.410156 -41.164062 41.191406 -38.78125 42.890625 -36 C 43.128906 -35.507812 43.460938 -34.90625 43.890625 -34.1875 C 43.222656 -32.976562 42.648438 -32.007812 42.171875 -31.28125 C 40.710938 -29.039062 39.171875 -27.015625 37.546875 -25.203125 C 36.691406 -24.296875 35.238281 -23.03125 33.1875 -21.40625 C 31.675781 -20.195312 30.921875 -19.410156 30.921875 -19.046875 C 30.921875 -18.441406 32.675781 -17.289062 36.1875 -15.59375 C 37.332031 -15.050781 39.113281 -14.234375 41.53125 -13.140625 C 41.53125 -13.140625 40.894531 -11.328125 39.625 -7.703125 C 37.570312 -1.960938 36.03125 2.175781 35 4.71875 C 33.007812 9.613281 31.015625 14.023438 29.015625 17.953125 C 27.328125 21.273438 25.117188 25.144531 22.390625 29.5625 C 20.765625 32.21875 18.53125 35.660156 15.6875 39.890625 C 14.65625 41.410156 13.65625 42.925781 12.6875 44.4375 C 12.9375 44.550781 14.453125 43.429688 17.234375 41.078125 C 20.429688 38.296875 23.515625 35.453125 26.484375 32.546875 C 30.171875 28.859375 33.34375 25.472656 36 22.390625 C 37.6875 20.398438 39.832031 17.53125 42.4375 13.78125 C 45.21875 9.789062 47.0625 7.070312 47.96875 5.625 C 48.695312 4.414062 49.484375 3.207031 50.328125 2 C 53.222656 2 55.203125 1.722656 56.265625 1.171875 C 57.328125 0.628906 57.859375 -0.300781 57.859375 -1.625 C 57.859375 -2.539062 57.628906 -3.375 57.171875 -4.125 C 56.710938 -4.882812 55.757812 -6.019531 54.3125 -7.53125 L 50.140625 -11.421875 C 50.378906 -11.421875 50.710938 -11.40625 51.140625 -11.375 C 51.566406 -11.34375 52.140625 -11.328125 52.859375 -11.328125 C 56.429688 -11.328125 59.363281 -11.628906 61.65625 -12.234375 C 65.226562 -13.203125 66.921875 -14.835938 66.734375 -17.140625 C 66.734375 -18.472656 65.921875 -20.316406 64.296875 -22.671875 C 63.742188 -23.390625 62.957031 -24.445312 61.9375 -25.84375 C 62.84375 -26.082031 63.566406 -26.296875 64.109375 -26.484375 C 65.492188 -26.960938 66.789062 -27.472656 68 -28.015625 C 69.394531 -28.804688 70.96875 -30.046875 72.71875 -31.734375 C 73.269531 -32.273438 74.023438 -33.09375 74.984375 -34.1875 Z M 50.953125 -63.75 C 50.953125 -62.289062 50.484375 -61.125 49.546875 -60.25 C 48.617188 -59.375 47.457031 -58.9375 46.0625 -58.9375 C 44.675781 -58.9375 43.5 -59.390625 42.53125 -60.296875 C 41.5625 -61.203125 41.078125 -62.351562 41.078125 -63.75 C 41.078125 -65.132812 41.5625 -66.296875 42.53125 -67.234375 C 43.5 -68.171875 44.675781 -68.640625 46.0625 -68.640625 C 47.394531 -68.640625 48.539062 -68.171875 49.5 -67.234375 C 50.46875 -66.296875 50.953125 -65.132812 50.953125 -63.75 Z M 61.9375 -50.953125 C 62.113281 -50.472656 61.429688 -49.265625 59.890625 -47.328125 C 58.347656 -45.398438 56.882812 -44.039062 55.5 -43.25 C 53.4375 -42.34375 50.894531 -41.648438 47.875 -41.171875 C 46.90625 -41.109375 45.578125 -40.984375 43.890625 -40.796875 C 43.398438 -41.953125 42.550781 -43.253906 41.34375 -44.703125 C 39.769531 -46.515625 38.019531 -47.90625 36.09375 -48.875 C 37.175781 -49.351562 38.050781 -49.742188 38.71875 -50.046875 C 41.132812 -51.140625 43.320312 -51.941406 45.28125 -52.453125 C 47.25 -52.972656 49.382812 -53.234375 51.6875 -53.234375 C 54.101562 -53.234375 56.382812 -52.972656 58.53125 -52.453125 C 60.675781 -51.941406 61.8125 -51.441406 61.9375 -50.953125 Z M 69.734375 -34.1875 C 68.222656 -33.039062 66.984375 -32.191406 66.015625 -31.640625 C 62.867188 -29.890625 59.9375 -29.015625 57.21875 -29.015625 C 54.070312 -29.015625 51.441406 -29.378906 49.328125 -30.109375 C 48.660156 -30.347656 47.875 -30.738281 46.96875 -31.28125 L 47.875 -34.1875 L 46.96875 -37.09375 C 47.8125 -37.570312 48.566406 -37.929688 49.234375 -38.171875 C 51.535156 -38.960938 54.195312 -39.359375 57.21875 -39.359375 C 60.0625 -39.359375 62.992188 -38.507812 66.015625 -36.8125 C 66.984375 -36.269531 68.222656 -35.394531 69.734375 -34.1875 Z M 61.9375 -17.40625 C 61.8125 -16.925781 60.644531 -16.425781 58.4375 -15.90625 C 56.226562 -15.394531 53.914062 -15.140625 51.5 -15.140625 C 49.207031 -15.140625 47.0625 -15.410156 45.0625 -15.953125 C 43.070312 -16.503906 40.988281 -17.257812 38.8125 -18.21875 C 38.082031 -18.582031 37.175781 -19.007812 36.09375 -19.5 C 37.96875 -20.34375 39.691406 -21.703125 41.265625 -23.578125 C 42.523438 -25.085938 43.398438 -26.414062 43.890625 -27.5625 C 44.796875 -27.5 45.582031 -27.441406 46.25 -27.390625 C 49.875 -26.960938 52.957031 -26.175781 55.5 -25.03125 C 56.882812 -24.363281 58.347656 -23.046875 59.890625 -21.078125 C 61.429688 -19.117188 62.113281 -17.894531 61.9375 -17.40625 Z M 50.953125 -4.625 C 50.953125 -3.226562 50.484375 -2.046875 49.546875 -1.078125 C 48.617188 -0.117188 47.457031 0.359375 46.0625 0.359375 C 44.726562 0.359375 43.5625 -0.117188 42.5625 -1.078125 C 41.570312 -2.046875 41.078125 -3.226562 41.078125 -4.625 C 41.078125 -6.070312 41.546875 -7.25 42.484375 -8.15625 C 43.421875 -9.0625 44.613281 -9.515625 46.0625 -9.515625 C 47.394531 -9.515625 48.539062 -9.046875 49.5 -8.109375 C 50.46875 -7.171875 50.953125 -6.007812 50.953125 -4.625 Z M 50.953125 -4.625 "/></g></g></g></g></g></svg>