<svg xmlns="http://www.w3.org/2000/svg" xmlns:xlink="http://www.w3.org/1999/xlink" width="512" zoomAndPan="magnify" viewBox="0 0 384 383.999986" height="512" preserveAspectRatio="xMidYMid meet" version="1.0"><defs><g/><clipPath id="03d64afa93"><path d="M 72 246 L 186 246 L 186 345.511719 L 72 345.511719 Z M 72 246 " clip-rule="nonzero"/></clipPath><clipPath id="eee2fbcf4c"><path d="M 24.726562 115.261719 L 191 115.261719 L 191 275 L 24.726562 275 Z M 24.726562 115.261719 " clip-rule="nonzero"/></clipPath><clipPath id="08b6f95246"><path d="M 194 115.261719 L 359.226562 115.261719 L 359.226562 275 L 194 275 Z M 194 115.261719 " clip-rule="nonzero"/></clipPath></defs><path fill="#064e3b" d="M 191.335938 227.28125 C 171.785156 201.003906 144.058594 186.550781 113.230469 176.457031 C 102.402344 172.914062 92.257812 167.277344 81.0625 162.269531 C 88.898438 146.875 95.503906 133.886719 102.3125 120.511719 C 120.890625 128.15625 139.050781 135.054688 156.699219 143.066406 C 171.9375 149.984375 185.308594 159.554688 191.96875 177.804688 C 203.3125 151.777344 226.105469 142.984375 248.589844 133.875 C 259.398438 129.5 270.378906 125.535156 282.398438 120.960938 C 288.78125 133.417969 295.425781 146.378906 302.34375 159.878906 C 295.203125 168.277344 285.472656 171.996094 275.523438 175.230469 C 254.914062 181.929688 234.511719 189.160156 217.5625 203.242188 C 208.644531 210.65625 200.421875 218.90625 191.34375 227.28125 Z M 191.335938 227.28125 " fill-opacity="1" fill-rule="nonzero"/><path fill="#064e3b" d="M 311.265625 163.691406 C 304.652344 150.242188 298.242188 137.207031 291.445312 123.390625 C 301.273438 124.566406 307.6875 127.949219 311.710938 136.722656 C 317.320312 148.929688 324.332031 160.488281 331.148438 173.074219 C 289.917969 197.917969 248.898438 222.636719 207.609375 247.511719 C 203.664062 244.410156 199.949219 241.492188 196.054688 238.429688 C 216.679688 212.011719 241.214844 192.523438 273.503906 183.667969 C 287.09375 179.941406 300.304688 174.910156 311.265625 163.691406 Z M 311.265625 163.691406 " fill-opacity="1" fill-rule="nonzero"/><path fill="#064e3b" d="M 53.382812 173.027344 C 61.265625 158.554688 68.125 144.519531 76.472656 131.425781 C 79.253906 127.066406 85.839844 125.128906 90.683594 122.078125 C 91.410156 122.730469 92.140625 123.382812 92.867188 124.035156 C 87.671875 134.484375 82.914062 145.1875 77.125 155.296875 C 73.136719 162.265625 73.917969 166.980469 81.058594 170.359375 C 89.949219 174.566406 98.617188 179.726562 107.96875 182.390625 C 140.957031 191.777344 167.207031 210.386719 187.769531 238.0625 C 186.851562 239.019531 185.933594 240.179688 184.816406 241.105469 C 182.304688 243.199219 179.695312 245.175781 176.820312 247.441406 C 135.84375 222.742188 95.082031 198.164062 53.382812 173.035156 Z M 53.382812 173.027344 " fill-opacity="1" fill-rule="nonzero"/><g clip-path="url(#03d64afa93)"><path fill="#064e3b" d="M 104.097656 274.730469 C 107.101562 258.53125 118.847656 252.519531 130.773438 246.851562 C 132.242188 246.148438 134.871094 246.53125 136.355469 247.414062 C 152.492188 257.070312 168.503906 266.929688 185.742188 277.464844 C 148.417969 300.085938 112.125 322.074219 73.328125 345.585938 C 73.328125 339.84375 72.445312 335.980469 73.484375 332.734375 C 77.636719 319.71875 85.476562 310.347656 98.394531 304.0625 C 109.851562 298.488281 119.945312 290.011719 130.316406 282.378906 C 133.855469 279.773438 137.304688 276.257812 139.117188 272.371094 C 140.445312 269.535156 140.339844 264.207031 138.480469 262.195312 C 136.585938 260.148438 131.054688 259.277344 128.371094 260.546875 C 120.289062 264.378906 112.816406 269.503906 104.09375 274.734375 Z M 104.097656 274.730469 " fill-opacity="1" fill-rule="nonzero"/></g><path fill="#064e3b" d="M 198.765625 277.445312 C 215.875 267.011719 231.421875 257.414062 247.136719 248.097656 C 249.074219 246.949219 252.390625 246.273438 254.25 247.136719 C 266.007812 252.605469 277.453125 258.644531 280.320312 274.460938 C 273.34375 270.332031 266.863281 266.5625 260.453125 262.679688 C 255.433594 259.636719 250.265625 256.203125 245.363281 262.359375 C 240.511719 268.449219 244.589844 273.8125 248.933594 277.128906 C 262.699219 287.636719 276.289062 298.8125 291.453125 306.914062 C 303.960938 313.597656 307.0625 325.097656 312.410156 335.761719 C 313.320312 337.578125 311.148438 340.941406 310.046875 344.851562 C 272.570312 322.148438 236.308594 300.1875 198.761719 277.445312 Z M 198.765625 277.445312 " fill-opacity="1" fill-rule="nonzero"/><g clip-path="url(#eee2fbcf4c)"><path fill="#064e3b" d="M 24.863281 172.6875 C 37.898438 153.601562 41.492188 130.457031 58.40625 115.261719 C 59.292969 115.722656 60.179688 116.179688 61.0625 116.636719 C 52.683594 134.230469 44.304688 151.820312 35.636719 170.035156 C 44.628906 175.550781 52.988281 180.734375 61.394531 185.839844 C 101.96875 210.453125 142.5 235.136719 183.195312 259.542969 C 188.878906 262.953125 192.039062 266.472656 188.589844 274.480469 C 134.386719 240.78125 80.289062 207.148438 24.863281 172.6875 Z M 24.863281 172.6875 " fill-opacity="1" fill-rule="nonzero"/></g><g clip-path="url(#08b6f95246)"><path fill="#064e3b" d="M 348.839844 169.921875 C 340.34375 152.050781 332.019531 134.539062 323.695312 117.019531 C 324.246094 116.464844 324.800781 115.910156 325.347656 115.355469 C 328.519531 118.320312 332.75 120.722656 334.675781 124.34375 C 342.988281 139.953125 350.628906 155.921875 359.128906 172.988281 C 304.800781 206.800781 250.664062 240.488281 196.109375 274.441406 C 192.808594 267.046875 195.117188 263.257812 201.375 259.507812 C 248.003906 231.578125 294.40625 203.28125 340.871094 175.082031 C 343.390625 173.554688 345.828125 171.875 348.839844 169.921875 Z M 348.839844 169.921875 " fill-opacity="1" fill-rule="nonzero"/></g><path fill="#064e3b" d="M 108.097656 287.347656 C 106.414062 284.871094 105.101562 282.933594 103.113281 280.007812 C 112.511719 274.722656 121.449219 269.382812 130.738281 264.734375 C 132.679688 263.757812 135.902344 265.347656 138.539062 265.75 C 138.695312 266.511719 138.847656 267.273438 139.003906 268.035156 C 129.023438 274.269531 119.039062 280.507812 108.09375 287.351562 Z M 108.097656 287.347656 " fill-opacity="1" fill-rule="nonzero"/><path fill="#064e3b" d="M 277.136719 287.6875 C 265.953125 280.773438 255.871094 274.542969 245.578125 268.179688 C 252.648438 262.171875 253.734375 262.550781 280.578125 280.011719 C 279.636719 282.097656 278.640625 284.328125 277.136719 287.683594 Z M 277.136719 287.6875 " fill-opacity="1" fill-rule="nonzero"/><g fill="#064e3b" fill-opacity="1"><g transform="translate(43.090131, 76.387146)"><g><path d="M 12.21875 9.046875 C 10.050781 9.046875 8.171875 8.675781 6.578125 7.9375 C 4.992188 7.195312 3.773438 6.117188 2.921875 4.703125 C 2.066406 3.296875 1.65625 1.617188 1.6875 -0.328125 C 1.738281 -2.054688 2.242188 -3.601562 3.203125 -4.96875 C 4.171875 -6.34375 5.242188 -7.46875 6.421875 -8.34375 L 7.40625 -6.09375 C 6.71875 -5.507812 6.101562 -4.867188 5.5625 -4.171875 C 5.03125 -3.472656 4.78125 -2.628906 4.8125 -1.640625 C 4.8125 0.0234375 5.394531 1.351562 6.5625 2.34375 C 7.726562 3.332031 9.765625 3.828125 12.671875 3.828125 C 15.492188 3.828125 17.625 3.546875 19.0625 2.984375 C 20.507812 2.421875 21.160156 1.628906 21.015625 0.609375 C 20.992188 0.285156 20.6875 -0.0078125 20.09375 -0.28125 C 19.507812 -0.5625 18.84375 -0.796875 18.09375 -0.984375 C 17.351562 -1.179688 16.722656 -1.304688 16.203125 -1.359375 L 17.3125 -6.421875 C 18.363281 -6.035156 19.265625 -5.675781 20.015625 -5.34375 C 20.765625 -5.019531 21.492188 -4.753906 22.203125 -4.546875 C 22.921875 -4.335938 23.691406 -4.234375 24.515625 -4.234375 C 24.734375 -4.234375 24.925781 -4 25.09375 -3.53125 C 25.257812 -3.070312 25.34375 -2.609375 25.34375 -2.140625 C 25.34375 -1.648438 25.257812 -1.171875 25.09375 -0.703125 C 24.925781 -0.234375 24.734375 0 24.515625 0 L 23.578125 -0.078125 C 23.898438 0.410156 24.132812 0.851562 24.28125 1.25 C 24.4375 1.644531 24.515625 2.078125 24.515625 2.546875 C 24.515625 3.753906 24.132812 4.773438 23.375 5.609375 C 22.625 6.453125 21.640625 7.125 20.421875 7.625 C 19.203125 8.132812 17.875 8.5 16.4375 8.71875 C 15 8.9375 13.59375 9.046875 12.21875 9.046875 Z M 11.109375 14.890625 C 10.453125 14.890625 9.894531 14.65625 9.4375 14.1875 C 8.988281 13.726562 8.765625 13.164062 8.765625 12.5 C 8.765625 11.84375 8.988281 11.28125 9.4375 10.8125 C 9.894531 10.351562 10.453125 10.125 11.109375 10.125 C 11.597656 10.125 12.035156 10.253906 12.421875 10.515625 C 12.804688 10.773438 13.09375 11.125 13.28125 11.5625 C 13.476562 11.125 13.773438 10.773438 14.171875 10.515625 C 14.566406 10.253906 15 10.125 15.46875 10.125 C 16.125 10.125 16.6875 10.351562 17.15625 10.8125 C 17.625 11.28125 17.859375 11.84375 17.859375 12.5 C 17.859375 13.164062 17.625 13.726562 17.15625 14.1875 C 16.6875 14.65625 16.125 14.890625 15.46875 14.890625 C 15 14.890625 14.566406 14.757812 14.171875 14.5 C 13.773438 14.238281 13.476562 13.90625 13.28125 13.5 C 13.09375 13.90625 12.804688 14.238281 12.421875 14.5 C 12.035156 14.757812 11.597656 14.890625 11.109375 14.890625 Z M 11.109375 14.890625 "/></g></g></g><g fill="#064e3b" fill-opacity="1"><g transform="translate(67.60525, 76.387146)"><g><path d="M 3.78125 -20.03125 C 3.09375 -20.03125 2.503906 -20.273438 2.015625 -20.765625 C 1.523438 -21.265625 1.28125 -21.859375 1.28125 -22.546875 C 1.28125 -23.253906 1.523438 -23.851562 2.015625 -24.34375 C 2.503906 -24.84375 3.09375 -25.09375 3.78125 -25.09375 C 4.5 -25.09375 5.101562 -24.84375 5.59375 -24.34375 C 6.082031 -23.851562 6.328125 -23.253906 6.328125 -22.546875 C 6.328125 -21.859375 6.082031 -21.265625 5.59375 -20.765625 C 5.101562 -20.273438 4.5 -20.03125 3.78125 -20.03125 Z M 0 0 C -0.1875 0 -0.367188 -0.234375 -0.546875 -0.703125 C -0.734375 -1.171875 -0.828125 -1.648438 -0.828125 -2.140625 C -0.828125 -2.609375 -0.734375 -3.070312 -0.546875 -3.53125 C -0.367188 -4 -0.1875 -4.234375 0 -4.234375 C 0.90625 -4.234375 1.753906 -4.390625 2.546875 -4.703125 C 3.347656 -5.023438 3.976562 -5.492188 4.4375 -6.109375 C 4.90625 -6.722656 5.097656 -7.484375 5.015625 -8.390625 L 4.078125 -17.734375 L 9.703125 -19.125 L 9.671875 -8.640625 C 9.671875 -6.941406 9.238281 -5.441406 8.375 -4.140625 C 7.507812 -2.835938 6.34375 -1.820312 4.875 -1.09375 C 3.40625 -0.363281 1.78125 0 0 0 Z M 0 0 "/></g></g></g><g fill="#064e3b" fill-opacity="1"><g transform="translate(78.957892, 76.387146)"><g><path d="M 3.703125 -1.109375 L 3.203125 -1.109375 L 1.640625 -29.046875 L 7.078125 -30.65625 L 6.296875 -6.90625 Z M 3.703125 -1.109375 "/></g></g></g><g fill="#064e3b" fill-opacity="1"><g transform="translate(87.678037, 76.387146)"><g><path d="M 8.59375 0 C 6.457031 0 4.789062 -0.34375 3.59375 -1.03125 C 2.40625 -1.71875 1.753906 -2.882812 1.640625 -4.53125 L 3.046875 -6.25 C 3.429688 -5.476562 4.054688 -4.960938 4.921875 -4.703125 C 5.785156 -4.441406 6.695312 -4.3125 7.65625 -4.3125 C 8.9375 -4.3125 10.015625 -4.609375 10.890625 -5.203125 C 11.773438 -5.796875 12.390625 -6.570312 12.734375 -7.53125 C 13.078125 -8.488281 13.097656 -9.550781 12.796875 -10.71875 C 12.492188 -11.882812 11.820312 -13.054688 10.78125 -14.234375 C 9.90625 -15.222656 9.003906 -15.96875 8.078125 -16.46875 C 7.160156 -16.976562 6.347656 -17.332031 5.640625 -17.53125 L 5.546875 -17.984375 L 8.796875 -22.375 C 11.347656 -21.0625 13.191406 -19.28125 14.328125 -17.03125 C 15.472656 -14.78125 16.03125 -12.242188 16 -9.421875 C 16.0625 -7.523438 16.382812 -6.1875 16.96875 -5.40625 C 17.5625 -4.625 18.363281 -4.234375 19.375 -4.234375 C 19.59375 -4.234375 19.785156 -4 19.953125 -3.53125 C 20.117188 -3.070312 20.203125 -2.609375 20.203125 -2.140625 C 20.203125 -1.648438 20.117188 -1.171875 19.953125 -0.703125 C 19.785156 -0.234375 19.59375 0 19.375 0 C 18.113281 0 17.097656 -0.3125 16.328125 -0.9375 C 15.566406 -1.570312 14.992188 -2.300781 14.609375 -3.125 C 14.054688 -2.195312 13.300781 -1.441406 12.34375 -0.859375 C 11.382812 -0.285156 10.132812 0 8.59375 0 Z M 8.59375 0 "/></g></g></g><g fill="#064e3b" fill-opacity="1"><g transform="translate(107.051556, 76.387146)"><g><path d="M 0 0 C -0.1875 0 -0.367188 -0.234375 -0.546875 -0.703125 C -0.734375 -1.171875 -0.828125 -1.648438 -0.828125 -2.140625 C -0.828125 -2.609375 -0.734375 -3.070312 -0.546875 -3.53125 C -0.367188 -4 -0.1875 -4.234375 0 -4.234375 C 1.207031 -4.234375 2.113281 -4.578125 2.71875 -5.265625 C 3.320312 -5.953125 3.59375 -7.007812 3.53125 -8.4375 L 2.75 -30.40625 L 8.265625 -27.6875 L 7.6875 -10.25 C 7.632812 -8.1875 7.378906 -6.488281 6.921875 -5.15625 C 6.472656 -3.832031 5.882812 -2.789062 5.15625 -2.03125 C 4.4375 -1.28125 3.628906 -0.753906 2.734375 -0.453125 C 1.847656 -0.148438 0.9375 0 0 0 Z M 0 0 "/></g></g></g><g fill="#064e3b" fill-opacity="1"><g transform="translate(116.964542, 76.387146)"><g><path d="M 3.703125 -1.109375 L 3.203125 -1.109375 L 1.640625 -29.046875 L 7.078125 -30.65625 L 6.296875 -6.90625 Z M 3.703125 -1.109375 "/></g></g></g><g fill="#064e3b" fill-opacity="1"><g transform="translate(125.684687, 76.387146)"><g/></g></g><g fill="#064e3b" fill-opacity="1"><g transform="translate(133.088579, 76.387146)"><g><path d="M 10 8.015625 L 7.484375 3.984375 L 7.484375 3.25 C 8.421875 3.132812 9.390625 2.882812 10.390625 2.5 C 11.390625 2.125 12.347656 1.625 13.265625 1 C 14.179688 0.382812 14.957031 -0.289062 15.59375 -1.03125 L 15.515625 -1.15625 C 13.921875 -0.414062 12.394531 -0.046875 10.9375 -0.046875 C 9.625 -0.046875 8.394531 -0.3125 7.25 -0.84375 C 6.113281 -1.375 5.128906 -2.097656 4.296875 -3.015625 C 3.460938 -3.941406 2.8125 -4.976562 2.34375 -6.125 C 1.875 -7.28125 1.640625 -8.472656 1.640625 -9.703125 C 1.640625 -10.941406 1.875 -12.132812 2.34375 -13.28125 C 2.8125 -14.4375 3.457031 -15.472656 4.28125 -16.390625 C 5.101562 -17.304688 6.0625 -18.039062 7.15625 -18.59375 C 8.25 -19.144531 9.429688 -19.421875 10.703125 -19.421875 C 12.285156 -19.421875 13.773438 -18.945312 15.171875 -18 C 16.578125 -17.050781 17.722656 -15.648438 18.609375 -13.796875 C 19.503906 -11.953125 19.953125 -9.671875 19.953125 -6.953125 C 19.953125 -4.234375 19.492188 -1.804688 18.578125 0.328125 C 17.660156 2.460938 16.445312 4.195312 14.9375 5.53125 C 13.425781 6.863281 11.78125 7.691406 10 8.015625 Z M 10.90625 -5.4375 C 11.8125 -5.4375 12.632812 -5.65625 13.375 -6.09375 C 14.113281 -6.53125 14.691406 -7.117188 15.109375 -7.859375 C 15.535156 -8.597656 15.75 -9.40625 15.75 -10.28125 C 15.75 -11.1875 15.535156 -12.015625 15.109375 -12.765625 C 14.691406 -13.523438 14.113281 -14.125 13.375 -14.5625 C 12.632812 -15 11.8125 -15.21875 10.90625 -15.21875 C 10 -15.21875 9.175781 -15 8.4375 -14.5625 C 7.695312 -14.125 7.101562 -13.523438 6.65625 -12.765625 C 6.21875 -12.015625 6 -11.1875 6 -10.28125 C 6 -9.40625 6.21875 -8.597656 6.65625 -7.859375 C 7.101562 -7.117188 7.695312 -6.53125 8.4375 -6.09375 C 9.175781 -5.65625 10 -5.4375 10.90625 -5.4375 Z M 10.90625 -5.4375 "/></g></g></g><g fill="#064e3b" fill-opacity="1"><g transform="translate(154.68327, 76.387146)"><g><path d="M 3.953125 7.8125 L 0 4.28125 L 0 3.625 C 0.707031 3.625 1.5 3.414062 2.375 3 C 3.257812 2.59375 4.132812 2.03125 5 1.3125 C 5.863281 0.601562 6.628906 -0.207031 7.296875 -1.125 C 7.972656 -2.050781 8.472656 -3.039062 8.796875 -4.09375 C 9.128906 -5.144531 9.203125 -6.207031 9.015625 -7.28125 L 7.15625 -16.703125 L 12.625 -19.703125 L 12.46875 -8.96875 C 12.46875 -7.625 12.640625 -6.609375 12.984375 -5.921875 C 13.328125 -5.234375 13.742188 -4.78125 14.234375 -4.5625 C 14.722656 -4.34375 15.203125 -4.234375 15.671875 -4.234375 C 15.890625 -4.234375 16.082031 -4 16.25 -3.53125 C 16.414062 -3.070312 16.5 -2.609375 16.5 -2.140625 C 16.5 -1.648438 16.414062 -1.171875 16.25 -0.703125 C 16.082031 -0.234375 15.890625 0 15.671875 0 C 14.742188 0 13.96875 -0.210938 13.34375 -0.640625 C 12.726562 -1.066406 12.285156 -1.539062 12.015625 -2.0625 C 11.460938 0.4375 10.445312 2.570312 8.96875 4.34375 C 7.488281 6.113281 5.816406 7.269531 3.953125 7.8125 Z M 3.953125 7.8125 "/></g></g></g><g fill="#064e3b" fill-opacity="1"><g transform="translate(170.354842, 76.387146)"><g><path d="M 12.046875 0.578125 C 10.628906 0.597656 9.273438 0.332031 7.984375 -0.21875 C 6.691406 -0.78125 5.609375 -1.570312 4.734375 -2.59375 C 4.296875 -1.820312 3.675781 -1.195312 2.875 -0.71875 C 2.082031 -0.238281 1.125 0 0 0 C -0.1875 0 -0.367188 -0.234375 -0.546875 -0.703125 C -0.734375 -1.171875 -0.828125 -1.648438 -0.828125 -2.140625 C -0.828125 -2.609375 -0.734375 -3.070312 -0.546875 -3.53125 C -0.367188 -4 -0.1875 -4.234375 0 -4.234375 C 0.570312 -4.234375 1.019531 -4.425781 1.34375 -4.8125 C 1.675781 -5.195312 1.914062 -5.679688 2.0625 -6.265625 C 2.21875 -6.859375 2.320312 -7.460938 2.375 -8.078125 C 2.4375 -8.703125 2.46875 -9.234375 2.46875 -9.671875 C 2.46875 -11.421875 2.863281 -13.03125 3.65625 -14.5 C 4.457031 -15.96875 5.53125 -17.15625 6.875 -18.0625 C 8.21875 -18.96875 9.710938 -19.445312 11.359375 -19.5 C 13.054688 -19.582031 14.617188 -19.195312 16.046875 -18.34375 C 17.472656 -17.5 18.628906 -16.34375 19.515625 -14.875 C 20.410156 -13.40625 20.882812 -11.738281 20.9375 -9.875 C 20.988281 -9.050781 21.128906 -8.207031 21.359375 -7.34375 C 21.597656 -6.476562 21.953125 -5.742188 22.421875 -5.140625 C 22.890625 -4.535156 23.492188 -4.234375 24.234375 -4.234375 C 24.453125 -4.234375 24.640625 -4 24.796875 -3.53125 C 24.960938 -3.070312 25.046875 -2.609375 25.046875 -2.140625 C 25.046875 -1.648438 24.960938 -1.171875 24.796875 -0.703125 C 24.640625 -0.234375 24.453125 0 24.234375 0 C 23.296875 0 22.390625 -0.269531 21.515625 -0.8125 C 20.640625 -1.363281 19.925781 -2.242188 19.375 -3.453125 C 18.582031 -2.273438 17.546875 -1.320312 16.265625 -0.59375 C 14.992188 0.132812 13.585938 0.523438 12.046875 0.578125 Z M 11.96875 -5.46875 C 12.925781 -5.5 13.796875 -5.753906 14.578125 -6.234375 C 15.359375 -6.710938 15.972656 -7.347656 16.421875 -8.140625 C 16.878906 -8.941406 17.097656 -9.820312 17.078125 -10.78125 C 17.046875 -11.769531 16.789062 -12.65625 16.3125 -13.4375 C 15.832031 -14.21875 15.191406 -14.835938 14.390625 -15.296875 C 13.597656 -15.765625 12.707031 -15.988281 11.71875 -15.96875 C 10.757812 -15.9375 9.894531 -15.671875 9.125 -15.171875 C 8.363281 -14.679688 7.753906 -14.03125 7.296875 -13.21875 C 6.847656 -12.414062 6.640625 -11.535156 6.671875 -10.578125 C 6.691406 -9.617188 6.941406 -8.742188 7.421875 -7.953125 C 7.898438 -7.171875 8.535156 -6.554688 9.328125 -6.109375 C 10.128906 -5.660156 11.007812 -5.445312 11.96875 -5.46875 Z M 11.96875 -5.46875 "/></g></g></g><g fill="#064e3b" fill-opacity="1"><g transform="translate(194.582028, 76.387146)"><g><path d="M 0 0 C -0.1875 0 -0.367188 -0.234375 -0.546875 -0.703125 C -0.734375 -1.171875 -0.828125 -1.648438 -0.828125 -2.140625 C -0.828125 -2.609375 -0.734375 -3.070312 -0.546875 -3.53125 C -0.367188 -4 -0.1875 -4.234375 0 -4.234375 C 1.226562 -4.234375 2.570312 -4.335938 4.03125 -4.546875 C 5.488281 -4.753906 6.898438 -5.035156 8.265625 -5.390625 C 7.117188 -5.578125 6.03125 -5.992188 5 -6.640625 C 3.96875 -7.285156 3.128906 -8.132812 2.484375 -9.1875 C 1.835938 -10.25 1.515625 -11.453125 1.515625 -12.796875 C 1.515625 -14.222656 1.820312 -15.488281 2.4375 -16.59375 C 3.0625 -17.707031 3.90625 -18.585938 4.96875 -19.234375 C 6.039062 -19.878906 7.238281 -20.203125 8.5625 -20.203125 C 9.101562 -20.203125 9.75 -20.144531 10.5 -20.03125 C 11.257812 -19.925781 11.972656 -19.769531 12.640625 -19.5625 C 13.316406 -19.351562 13.78125 -19.128906 14.03125 -18.890625 L 16.09375 -16 L 15.875 -16 C 15.65625 -16.113281 15.15625 -16.210938 14.375 -16.296875 C 13.59375 -16.378906 12.847656 -16.429688 12.140625 -16.453125 C 11.285156 -16.535156 10.382812 -16.453125 9.4375 -16.203125 C 8.488281 -15.960938 7.691406 -15.519531 7.046875 -14.875 C 6.410156 -14.226562 6.09375 -13.328125 6.09375 -12.171875 C 6.09375 -11.242188 6.382812 -10.441406 6.96875 -9.765625 C 7.5625 -9.097656 8.296875 -8.5625 9.171875 -8.15625 C 10.046875 -7.757812 10.929688 -7.523438 11.828125 -7.453125 C 12.722656 -7.390625 13.484375 -7.5 14.109375 -7.78125 C 14.878906 -8.1875 15.585938 -8.613281 16.234375 -9.0625 C 16.878906 -9.519531 17.445312 -9.992188 17.9375 -10.484375 L 18.34375 -10.28125 C 18.320312 -10.175781 18.253906 -9.851562 18.140625 -9.3125 C 18.035156 -8.78125 17.898438 -8.171875 17.734375 -7.484375 C 17.566406 -6.796875 17.378906 -6.128906 17.171875 -5.484375 C 16.972656 -4.847656 16.75 -4.335938 16.5 -3.953125 C 16.0625 -3.296875 15.28125 -2.71875 14.15625 -2.21875 C 13.03125 -1.726562 11.695312 -1.316406 10.15625 -0.984375 C 8.625 -0.660156 6.976562 -0.414062 5.21875 -0.25 C 3.46875 -0.0820312 1.726562 0 0 0 Z M 0 0 "/></g></g></g><g fill="#064e3b" fill-opacity="1"><g transform="translate(214.572543, 76.387146)"><g/></g></g><g fill="#064e3b" fill-opacity="1"><g transform="translate(221.976435, 76.387146)"><g><path d="M 12.21875 9.046875 C 10.050781 9.046875 8.171875 8.675781 6.578125 7.9375 C 4.992188 7.195312 3.773438 6.117188 2.921875 4.703125 C 2.066406 3.296875 1.65625 1.617188 1.6875 -0.328125 C 1.738281 -2.054688 2.242188 -3.601562 3.203125 -4.96875 C 4.171875 -6.34375 5.242188 -7.46875 6.421875 -8.34375 L 7.40625 -6.09375 C 6.71875 -5.507812 6.101562 -4.867188 5.5625 -4.171875 C 5.03125 -3.472656 4.78125 -2.628906 4.8125 -1.640625 C 4.8125 0.0234375 5.394531 1.351562 6.5625 2.34375 C 7.726562 3.332031 9.765625 3.828125 12.671875 3.828125 C 15.492188 3.828125 17.625 3.546875 19.0625 2.984375 C 20.507812 2.421875 21.160156 1.628906 21.015625 0.609375 C 20.992188 0.285156 20.6875 -0.0078125 20.09375 -0.28125 C 19.507812 -0.5625 18.84375 -0.796875 18.09375 -0.984375 C 17.351562 -1.179688 16.722656 -1.304688 16.203125 -1.359375 L 17.3125 -6.421875 C 18.363281 -6.035156 19.265625 -5.675781 20.015625 -5.34375 C 20.765625 -5.019531 21.492188 -4.753906 22.203125 -4.546875 C 22.921875 -4.335938 23.691406 -4.234375 24.515625 -4.234375 C 24.734375 -4.234375 24.925781 -4 25.09375 -3.53125 C 25.257812 -3.070312 25.34375 -2.609375 25.34375 -2.140625 C 25.34375 -1.648438 25.257812 -1.171875 25.09375 -0.703125 C 24.925781 -0.234375 24.734375 0 24.515625 0 L 23.578125 -0.078125 C 23.898438 0.410156 24.132812 0.851562 24.28125 1.25 C 24.4375 1.644531 24.515625 2.078125 24.515625 2.546875 C 24.515625 3.753906 24.132812 4.773438 23.375 5.609375 C 22.625 6.453125 21.640625 7.125 20.421875 7.625 C 19.203125 8.132812 17.875 8.5 16.4375 8.71875 C 15 8.9375 13.59375 9.046875 12.21875 9.046875 Z M 11.109375 14.890625 C 10.453125 14.890625 9.894531 14.65625 9.4375 14.1875 C 8.988281 13.726562 8.765625 13.164062 8.765625 12.5 C 8.765625 11.84375 8.988281 11.28125 9.4375 10.8125 C 9.894531 10.351562 10.453125 10.125 11.109375 10.125 C 11.597656 10.125 12.035156 10.253906 12.421875 10.515625 C 12.804688 10.773438 13.09375 11.125 13.28125 11.5625 C 13.476562 11.125 13.773438 10.773438 14.171875 10.515625 C 14.566406 10.253906 15 10.125 15.46875 10.125 C 16.125 10.125 16.6875 10.351562 17.15625 10.8125 C 17.625 11.28125 17.859375 11.84375 17.859375 12.5 C 17.859375 13.164062 17.625 13.726562 17.15625 14.1875 C 16.6875 14.65625 16.125 14.890625 15.46875 14.890625 C 15 14.890625 14.566406 14.757812 14.171875 14.5 C 13.773438 14.238281 13.476562 13.90625 13.28125 13.5 C 13.09375 13.90625 12.804688 14.238281 12.421875 14.5 C 12.035156 14.757812 11.597656 14.890625 11.109375 14.890625 Z M 11.109375 14.890625 "/></g></g></g><g fill="#064e3b" fill-opacity="1"><g transform="translate(246.491543, 76.387146)"><g><path d="M 0 0 C -0.1875 0 -0.367188 -0.234375 -0.546875 -0.703125 C -0.734375 -1.171875 -0.828125 -1.648438 -0.828125 -2.140625 C -0.828125 -2.609375 -0.734375 -3.070312 -0.546875 -3.53125 C -0.367188 -4 -0.1875 -4.234375 0 -4.234375 C 0.90625 -4.234375 1.75 -4.390625 2.53125 -4.703125 C 3.3125 -5.023438 3.929688 -5.492188 4.390625 -6.109375 C 4.859375 -6.722656 5.066406 -7.484375 5.015625 -8.390625 L 4.078125 -17.734375 L 9.703125 -19.125 L 9.671875 -8.640625 C 9.671875 -6.941406 9.238281 -5.441406 8.375 -4.140625 C 7.507812 -2.835938 6.34375 -1.820312 4.875 -1.09375 C 3.40625 -0.363281 1.78125 0 0 0 Z M 4.859375 6 C 4.171875 6 3.578125 5.742188 3.078125 5.234375 C 2.585938 4.734375 2.34375 4.140625 2.34375 3.453125 C 2.34375 2.742188 2.585938 2.148438 3.078125 1.671875 C 3.578125 1.191406 4.171875 0.953125 4.859375 0.953125 C 5.566406 0.953125 6.164062 1.191406 6.65625 1.671875 C 7.15625 2.148438 7.40625 2.742188 7.40625 3.453125 C 7.40625 4.140625 7.15625 4.734375 6.65625 5.234375 C 6.164062 5.742188 5.566406 6 4.859375 6 Z M 4.859375 6 "/></g></g></g><g fill="#064e3b" fill-opacity="1"><g transform="translate(257.844195, 76.387146)"><g><path d="M 7.90625 -27.359375 L 0.703125 -24.109375 L 0.40625 -24.234375 L 0.578125 -26.828125 L 3.171875 -27.359375 L 3.171875 -27.40625 C 2.734375 -27.457031 2.265625 -27.601562 1.765625 -27.84375 C 1.273438 -28.09375 0.921875 -28.519531 0.703125 -29.125 C 0.421875 -29.925781 0.523438 -30.804688 1.015625 -31.765625 C 1.515625 -32.722656 2.21875 -33.460938 3.125 -33.984375 C 3.863281 -34.421875 4.582031 -34.648438 5.28125 -34.671875 C 5.976562 -34.703125 6.566406 -34.609375 7.046875 -34.390625 C 7.535156 -34.171875 7.789062 -33.925781 7.8125 -33.65625 C 7.757812 -33.519531 7.664062 -33.285156 7.53125 -32.953125 C 7.394531 -32.617188 7.25 -32.296875 7.09375 -31.984375 C 6.945312 -31.671875 6.816406 -31.445312 6.703125 -31.3125 L 6.453125 -31.265625 C 5.992188 -31.867188 5.453125 -32.160156 4.828125 -32.140625 C 4.210938 -32.128906 3.675781 -31.953125 3.21875 -31.609375 C 2.769531 -31.273438 2.546875 -30.914062 2.546875 -30.53125 C 2.578125 -30.164062 2.8125 -29.90625 3.25 -29.75 C 3.6875 -29.601562 4.1875 -29.523438 4.75 -29.515625 C 5.3125 -29.503906 5.769531 -29.507812 6.125 -29.53125 L 7.328125 -29.625 C 7.628906 -29.675781 7.910156 -29.691406 8.171875 -29.671875 C 8.429688 -29.660156 8.53125 -29.535156 8.46875 -29.296875 Z M 3.75 -0.171875 L 3.25 -0.171875 L 1.640625 -22.546875 L 7.078125 -25.140625 L 6.296875 -5.96875 Z M 3.75 -0.171875 "/></g></g></g><g fill="#064e3b" fill-opacity="1"><g transform="translate(266.564341, 76.387146)"><g/></g></g><g fill="#064e3b" fill-opacity="1"><g transform="translate(273.968233, 76.387146)"><g><path d="M 10.984375 0 C 8.160156 0 5.894531 -0.539062 4.1875 -1.625 C 2.488281 -2.707031 1.640625 -4.207031 1.640625 -6.125 C 1.640625 -6.863281 1.769531 -7.644531 2.03125 -8.46875 C 2.289062 -9.289062 2.644531 -10.054688 3.09375 -10.765625 C 3.550781 -11.484375 4.070312 -12.050781 4.65625 -12.46875 L 6.046875 -10.15625 C 5.828125 -9.9375 5.597656 -9.546875 5.359375 -8.984375 C 5.128906 -8.421875 5.03125 -7.910156 5.0625 -7.453125 C 5.082031 -7.035156 5.304688 -6.585938 5.734375 -6.109375 C 6.160156 -5.628906 6.875 -5.207031 7.875 -4.84375 C 8.875 -4.488281 10.253906 -4.3125 12.015625 -4.3125 C 12.859375 -4.3125 13.78125 -4.367188 14.78125 -4.484375 C 15.789062 -4.597656 16.707031 -4.820312 17.53125 -5.15625 C 18.351562 -5.5 18.925781 -6.023438 19.25 -6.734375 C 19.582031 -7.453125 19.488281 -8.398438 18.96875 -9.578125 C 18.632812 -10.378906 18.226562 -11.179688 17.75 -11.984375 C 17.269531 -12.796875 16.835938 -13.519531 16.453125 -14.15625 L 19.625 -19.171875 C 19.757812 -18.984375 19.988281 -18.59375 20.3125 -18 C 20.644531 -17.40625 21.003906 -16.703125 21.390625 -15.890625 C 21.773438 -15.085938 22.140625 -14.238281 22.484375 -13.34375 C 22.828125 -12.457031 23.09375 -11.613281 23.28125 -10.8125 C 23.476562 -9.988281 23.566406 -9.097656 23.546875 -8.140625 C 23.535156 -7.179688 23.34375 -6.222656 22.96875 -5.265625 C 22.601562 -4.304688 21.960938 -3.425781 21.046875 -2.625 C 20.128906 -1.832031 18.851562 -1.195312 17.21875 -0.71875 C 15.582031 -0.238281 13.503906 0 10.984375 0 Z M 12.796875 6.21875 C 12.109375 6.21875 11.515625 5.96875 11.015625 5.46875 C 10.523438 4.976562 10.28125 4.390625 10.28125 3.703125 C 10.28125 2.992188 10.523438 2.390625 11.015625 1.890625 C 11.515625 1.398438 12.109375 1.15625 12.796875 1.15625 C 13.503906 1.15625 14.101562 1.398438 14.59375 1.890625 C 15.09375 2.390625 15.34375 2.992188 15.34375 3.703125 C 15.34375 4.390625 15.09375 4.976562 14.59375 5.46875 C 14.101562 5.96875 13.503906 6.21875 12.796875 6.21875 Z M 12.796875 6.21875 "/></g></g></g><g fill="#064e3b" fill-opacity="1"><g transform="translate(299.059196, 76.387146)"><g><path d="M 10.90625 0 C 9.34375 0 8.03125 -0.265625 6.96875 -0.796875 C 5.914062 -1.335938 5.09375 -2.347656 4.5 -3.828125 C 3.914062 -5.304688 3.523438 -7.445312 3.328125 -10.25 L 1.96875 -29 L 7.359375 -30.65625 L 7.078125 -10.078125 C 7.046875 -8.023438 7.34375 -6.535156 7.96875 -5.609375 C 8.601562 -4.691406 9.582031 -4.234375 10.90625 -4.234375 C 11.125 -4.234375 11.3125 -4 11.46875 -3.53125 C 11.632812 -3.070312 11.71875 -2.609375 11.71875 -2.140625 C 11.71875 -1.648438 11.632812 -1.171875 11.46875 -0.703125 C 11.3125 -0.234375 11.125 0 10.90625 0 Z M 10.90625 0 "/></g></g></g><g fill="#064e3b" fill-opacity="1"><g transform="translate(312.468764, 74.289135)"><g><path d="M 7.40625 -33.53125 L 0.40625 -30.359375 L 0.203125 -30.765625 L 0.609375 -31.84375 L 7.359375 -35.21875 Z M 2.21875 -25.265625 C 1.613281 -25.265625 1.101562 -25.460938 0.6875 -25.859375 C 0.28125 -26.253906 0.078125 -26.753906 0.078125 -27.359375 L 0 -29.375 L 1.40625 -29.453125 L 1.28125 -28.21875 C 1.25 -27.945312 1.304688 -27.660156 1.453125 -27.359375 C 1.609375 -27.054688 1.921875 -26.921875 2.390625 -26.953125 C 2.828125 -27.003906 3.09375 -27.171875 3.1875 -27.453125 C 3.28125 -27.742188 3.328125 -28 3.328125 -28.21875 L 3.25 -29.375 L 4.609375 -29.65625 L 4.484375 -28.21875 C 4.453125 -27.976562 4.476562 -27.726562 4.5625 -27.46875 C 4.644531 -27.207031 4.90625 -27.0625 5.34375 -27.03125 C 5.8125 -27.03125 6.109375 -27.171875 6.234375 -27.453125 C 6.359375 -27.742188 6.421875 -28 6.421875 -28.21875 L 6.375 -29.375 L 7.453125 -29.953125 L 7.78125 -29.875 L 7.609375 -27.359375 C 7.609375 -26.835938 7.394531 -26.359375 6.96875 -25.921875 C 6.539062 -25.484375 6.054688 -25.265625 5.515625 -25.265625 C 4.796875 -25.265625 4.25 -25.523438 3.875 -26.046875 C 3.425781 -25.523438 2.875 -25.265625 2.21875 -25.265625 Z M 2.21875 -25.265625 "/></g></g></g><g fill="#064e3b" fill-opacity="1"><g transform="translate(309.959372, 76.387146)"><g><path d="M 4.078125 -18.921875 C 3.441406 -18.921875 2.890625 -19.160156 2.421875 -19.640625 C 1.960938 -20.117188 1.734375 -20.675781 1.734375 -21.3125 C 1.734375 -21.96875 1.960938 -22.53125 2.421875 -23 C 2.890625 -23.46875 3.441406 -23.703125 4.078125 -23.703125 C 4.566406 -23.703125 5.003906 -23.570312 5.390625 -23.3125 C 5.773438 -23.050781 6.0625 -22.710938 6.25 -22.296875 C 6.445312 -22.710938 6.742188 -23.050781 7.140625 -23.3125 C 7.535156 -23.570312 7.96875 -23.703125 8.4375 -23.703125 C 9.09375 -23.703125 9.648438 -23.46875 10.109375 -23 C 10.578125 -22.53125 10.8125 -21.96875 10.8125 -21.3125 C 10.8125 -20.675781 10.578125 -20.117188 10.109375 -19.640625 C 9.648438 -19.160156 9.09375 -18.921875 8.4375 -18.921875 C 7.96875 -18.921875 7.535156 -19.054688 7.140625 -19.328125 C 6.742188 -19.609375 6.445312 -19.953125 6.25 -20.359375 C 6.0625 -19.953125 5.773438 -19.609375 5.390625 -19.328125 C 5.003906 -19.054688 4.566406 -18.921875 4.078125 -18.921875 Z M 0 0 C -0.1875 0 -0.367188 -0.234375 -0.546875 -0.703125 C -0.734375 -1.171875 -0.828125 -1.648438 -0.828125 -2.140625 C -0.828125 -2.609375 -0.742188 -3.070312 -0.578125 -3.53125 C -0.410156 -4 -0.21875 -4.234375 0 -4.234375 C 0.550781 -4.234375 1.09375 -4.390625 1.625 -4.703125 C 2.15625 -5.023438 2.601562 -5.5 2.96875 -6.125 C 3.34375 -6.757812 3.503906 -7.53125 3.453125 -8.4375 L 3 -16.875 L 8.46875 -16.25 L 8.4375 -10.03125 C 8.40625 -8.09375 8.765625 -6.640625 9.515625 -5.671875 C 10.273438 -4.710938 11.257812 -4.234375 12.46875 -4.234375 C 12.6875 -4.234375 12.875 -4 13.03125 -3.53125 C 13.195312 -3.070312 13.28125 -2.609375 13.28125 -2.140625 C 13.28125 -1.648438 13.195312 -1.171875 13.03125 -0.703125 C 12.875 -0.234375 12.6875 0 12.46875 0 C 11.613281 0 10.769531 -0.15625 9.9375 -0.46875 C 9.101562 -0.789062 8.367188 -1.195312 7.734375 -1.6875 C 7.097656 -2.175781 6.628906 -2.710938 6.328125 -3.296875 C 5.484375 -2.273438 4.597656 -1.46875 3.671875 -0.875 C 2.753906 -0.289062 1.53125 0 0 0 Z M 0 0 "/></g></g></g><g fill="#064e3b" fill-opacity="1"><g transform="translate(324.397191, 73.425244)"><g><path d="M 6.78125 -29.53125 L 1.15625 -26.40625 L 0.984375 -26.828125 L 1.28125 -28.34375 L 4.765625 -29.90625 C 4.441406 -29.957031 4.160156 -30.09375 3.921875 -30.3125 C 3.691406 -30.539062 3.535156 -30.75 3.453125 -30.9375 C 3.179688 -31.488281 3.132812 -32.09375 3.3125 -32.75 C 3.488281 -33.40625 3.894531 -33.898438 4.53125 -34.234375 C 5.15625 -34.535156 5.789062 -34.566406 6.4375 -34.328125 C 7.082031 -34.097656 7.539062 -33.722656 7.8125 -33.203125 C 8.113281 -32.679688 8.1875 -32.035156 8.03125 -31.265625 C 7.882812 -30.492188 7.46875 -29.914062 6.78125 -29.53125 Z M 6.125 -31.015625 C 6.425781 -31.148438 6.617188 -31.351562 6.703125 -31.625 C 6.785156 -31.90625 6.757812 -32.171875 6.625 -32.421875 C 6.507812 -32.691406 6.304688 -32.875 6.015625 -32.96875 C 5.734375 -33.070312 5.457031 -33.050781 5.1875 -32.90625 C 4.6875 -32.601562 4.535156 -32.125 4.734375 -31.46875 C 4.867188 -31.226562 5.070312 -31.066406 5.34375 -30.984375 C 5.625 -30.898438 5.882812 -30.910156 6.125 -31.015625 Z M 6.125 -31.015625 "/></g></g></g><g fill="#064e3b" fill-opacity="1"><g transform="translate(322.422605, 76.387146)"><g><path d="M 0 0 C -0.1875 0 -0.367188 -0.234375 -0.546875 -0.703125 C -0.734375 -1.171875 -0.828125 -1.648438 -0.828125 -2.140625 C -0.828125 -2.628906 -0.734375 -3.097656 -0.546875 -3.546875 C -0.367188 -4.003906 -0.1875 -4.234375 0 -4.234375 C 0.957031 -4.234375 2.039062 -4.375 3.25 -4.65625 C 4.457031 -4.945312 5.625 -5.378906 6.75 -5.953125 C 7.875 -6.535156 8.804688 -7.257812 9.546875 -8.125 C 10.285156 -8.988281 10.65625 -10 10.65625 -11.15625 C 10.65625 -12.03125 10.304688 -12.859375 9.609375 -13.640625 C 8.910156 -14.421875 7.9375 -15.015625 6.6875 -15.421875 C 5.4375 -15.835938 3.988281 -15.921875 2.34375 -15.671875 L 0.609375 -18.515625 L 15.296875 -31.96875 L 18.46875 -27.15625 L 5.21875 -18.46875 C 6.507812 -18.519531 7.785156 -18.378906 9.046875 -18.046875 C 10.304688 -17.722656 11.457031 -17.234375 12.5 -16.578125 C 13.539062 -15.921875 14.378906 -15.113281 15.015625 -14.15625 C 15.648438 -13.195312 15.96875 -12.097656 15.96875 -10.859375 C 15.96875 -9.265625 15.609375 -7.867188 14.890625 -6.671875 C 14.179688 -5.484375 13.242188 -4.460938 12.078125 -3.609375 C 10.910156 -2.765625 9.617188 -2.070312 8.203125 -1.53125 C 6.796875 -1 5.378906 -0.609375 3.953125 -0.359375 C 2.523438 -0.117188 1.207031 0 0 0 Z M 0 0 "/></g></g></g></svg>