<svg xmlns="http://www.w3.org/2000/svg" xmlns:xlink="http://www.w3.org/1999/xlink" width="60" zoomAndPan="magnify" viewBox="0 0 45 44.999999" height="60" preserveAspectRatio="xMidYMid meet" version="1.0"><path fill="#064e3b" d="M 22.519531 0.00390625 L 25.097656 2.566406 L 25.097656 2.613281 C 25.09375 3.175781 25.085938 3.742188 25.082031 4.308594 L 25.078125 4.605469 L 24.996094 4.625 C 24.171875 4.832031 23.351562 5.035156 22.527344 5.238281 L 22.5 5.246094 L 19.957031 4.476562 L 19.957031 2.601562 Z M 22.519531 0.316406 L 20.179688 2.691406 L 20.179688 4.3125 L 22.503906 5.015625 C 23.289062 4.820312 24.074219 4.625 24.859375 4.429688 L 24.859375 4.304688 C 24.867188 3.753906 24.871094 3.207031 24.875 2.65625 Z M 22.519531 0.316406 " fill-opacity="1" fill-rule="evenodd"/><path fill="#064e3b" d="M 33.875 3.015625 L 34.710938 6.566406 L 33.730469 8.171875 L 31.164062 7.503906 L 29.292969 5.613281 L 30.339844 3.859375 Z M 30.484375 4.054688 L 29.574219 5.578125 L 31.277344 7.304688 L 33.628906 7.914062 L 34.472656 6.53125 L 33.710938 3.285156 Z M 30.484375 4.054688 " fill-opacity="1" fill-rule="evenodd"/><path fill="#064e3b" d="M 11.027344 3.097656 L 14.5625 3.941406 L 15.609375 5.691406 L 15.550781 5.753906 C 14.953125 6.355469 14.359375 6.960938 13.761719 7.5625 L 13.742188 7.585938 L 11.171875 8.25 L 10.195312 6.648438 Z M 11.191406 3.367188 L 10.429688 6.609375 L 11.277344 7.996094 L 13.625 7.382812 C 14.195312 6.808594 14.761719 6.234375 15.332031 5.660156 L 14.421875 4.136719 Z M 11.191406 3.367188 " fill-opacity="1" fill-rule="evenodd"/><path fill="#064e3b" d="M 25.933594 3.429688 L 26.121094 3.621094 C 26.378906 3.878906 26.636719 4.136719 26.894531 4.390625 L 27.277344 4.777344 C 27.738281 4.628906 28.199219 4.484375 28.660156 4.335938 L 28.925781 4.253906 L 28.792969 4.496094 C 28.636719 4.785156 28.476562 5.078125 28.316406 5.371094 L 28.152344 5.671875 L 29.621094 7.0625 L 27.640625 6.589844 L 25.84375 9.355469 L 26.011719 6.179688 C 25.550781 6.015625 25.089844 5.851562 24.628906 5.691406 L 24.171875 5.527344 L 24.515625 5.433594 C 24.789062 5.359375 25.0625 5.285156 25.335938 5.210938 L 25.925781 5.050781 Z M 26.152344 3.964844 L 26.148438 5.222656 L 25.40625 5.421875 C 25.242188 5.46875 25.078125 5.511719 24.914062 5.554688 C 25.332031 5.703125 25.746094 5.851562 26.164062 6 L 26.242188 6.027344 L 26.109375 8.539062 L 27.539062 6.339844 L 28.867188 6.652344 L 27.875 5.714844 L 28.097656 5.308594 C 28.21875 5.082031 28.34375 4.859375 28.464844 4.632812 C 28.105469 4.746094 27.742188 4.863281 27.382812 4.976562 L 27.21875 5.027344 L 26.777344 4.589844 C 26.570312 4.382812 26.359375 4.171875 26.152344 3.964844 Z M 26.152344 3.964844 " fill-opacity="1" fill-rule="evenodd"/><path fill="#064e3b" d="M 19.019531 3.570312 L 19.023438 5.191406 C 19.214844 5.242188 19.40625 5.296875 19.597656 5.347656 C 19.875 5.421875 20.15625 5.5 20.4375 5.574219 L 20.78125 5.667969 L 20.445312 5.789062 C 19.945312 5.964844 19.441406 6.144531 18.941406 6.320312 L 19.109375 9.496094 L 17.3125 6.730469 L 15.332031 7.203125 L 16.796875 5.8125 C 16.585938 5.417969 16.371094 5.027344 16.15625 4.636719 L 16.027344 4.394531 L 16.289062 4.476562 C 16.75 4.625 17.210938 4.769531 17.671875 4.917969 L 18.015625 4.574219 C 18.289062 4.300781 18.558594 4.03125 18.832031 3.761719 Z M 18.152344 4.753906 L 17.734375 5.167969 L 17.667969 5.148438 C 17.273438 5.023438 16.878906 4.898438 16.484375 4.773438 C 16.621094 5.023438 16.757812 5.273438 16.894531 5.523438 L 17.074219 5.855469 L 16.085938 6.792969 L 17.414062 6.480469 L 18.84375 8.679688 L 18.710938 6.167969 L 18.789062 6.140625 C 19.203125 5.992188 19.621094 5.84375 20.035156 5.695312 C 19.871094 5.652344 19.703125 5.605469 19.539062 5.5625 C 19.320312 5.503906 19.101562 5.441406 18.882812 5.382812 L 18.800781 5.363281 L 18.796875 4.105469 C 18.582031 4.320312 18.367188 4.539062 18.152344 4.753906 Z M 18.152344 4.753906 " fill-opacity="1" fill-rule="evenodd"/><path fill="#064e3b" d="M 22.507812 6.023438 L 22.539062 6.03125 C 23.402344 6.28125 24.265625 6.535156 25.132812 6.785156 L 25.210938 6.808594 L 25.164062 11.171875 L 25.148438 11.199219 C 24.285156 12.632812 23.421875 14.0625 22.558594 15.492188 L 22.457031 15.65625 L 19.824219 10.9375 L 19.871094 6.738281 Z M 20.09375 6.910156 L 20.046875 10.878906 L 22.464844 15.214844 C 23.292969 13.847656 24.117188 12.480469 24.941406 11.109375 L 24.988281 6.972656 C 24.160156 6.734375 23.332031 6.492188 22.503906 6.253906 Z M 20.09375 6.910156 " fill-opacity="1" fill-rule="evenodd"/><path fill="#064e3b" d="M 27.890625 7.558594 L 30.617188 8.261719 L 32.519531 10.21875 L 30.421875 13.855469 L 25.75 16.574219 L 25.707031 11.339844 Z M 28 7.816406 L 25.929688 11.398438 L 25.96875 16.191406 L 30.257812 13.691406 L 32.242188 10.253906 L 30.5 8.460938 Z M 28 7.816406 " fill-opacity="1" fill-rule="evenodd"/><path fill="#064e3b" d="M 16.882812 7.675781 L 19.066406 11.457031 L 19.023438 16.691406 L 14.351562 13.972656 L 14.335938 13.945312 C 13.839844 13.082031 13.339844 12.214844 12.839844 11.351562 L 12.257812 10.335938 L 12.554688 10.027344 C 13.082031 9.484375 13.609375 8.941406 14.136719 8.398438 L 14.15625 8.378906 Z M 14.273438 8.578125 C 13.691406 9.175781 13.113281 9.773438 12.53125 10.371094 L 13.015625 11.210938 C 13.515625 12.078125 14.015625 12.945312 14.515625 13.808594 L 18.804688 16.308594 L 18.84375 11.515625 L 16.777344 7.933594 Z M 14.273438 8.578125 " fill-opacity="1" fill-rule="evenodd"/><path fill="#064e3b" d="M 35.0625 7.777344 L 35.566406 9.613281 L 37.253906 9.972656 L 35.882812 10.824219 L 36.46875 12.757812 L 36.164062 12.476562 C 35.769531 12.105469 35.375 11.738281 34.980469 11.367188 L 32.050781 12.882812 L 33.765625 10.203125 L 32.492188 8.726562 L 34.253906 9.183594 Z M 34.988281 8.351562 L 34.363281 9.441406 L 33.125 9.121094 L 34.042969 10.183594 L 32.6875 12.304688 L 35.019531 11.097656 L 35.074219 11.152344 C 35.386719 11.445312 35.703125 11.738281 36.015625 12.03125 L 35.621094 10.722656 L 36.667969 10.074219 L 35.386719 9.800781 Z M 34.988281 8.351562 " fill-opacity="1" fill-rule="evenodd"/><path fill="#064e3b" d="M 9.933594 7.816406 L 10.742188 9.222656 L 12.503906 8.769531 L 11.230469 10.246094 L 12.945312 12.921875 L 10.015625 11.40625 C 9.621094 11.777344 9.226562 12.144531 8.832031 12.515625 L 8.527344 12.796875 L 9.113281 10.863281 L 7.742188 10.011719 L 9.429688 9.652344 Z M 10.007812 8.390625 L 10.632812 9.480469 L 11.871094 9.160156 L 10.953125 10.226562 L 12.308594 12.34375 L 9.976562 11.136719 L 9.90625 11.207031 C 9.597656 11.496094 9.289062 11.78125 8.980469 12.070312 L 9.375 10.765625 L 8.328125 10.117188 L 9.609375 9.84375 Z M 10.007812 8.390625 " fill-opacity="1" fill-rule="evenodd"/><path fill="#064e3b" d="M 38.742188 10.234375 L 42.222656 11.277344 L 42.191406 11.382812 C 41.855469 12.496094 41.515625 13.609375 41.179688 14.722656 L 41.164062 14.765625 L 39.515625 15.664062 L 37.628906 13.800781 L 36.957031 11.226562 L 37.03125 11.183594 C 37.390625 10.984375 37.746094 10.789062 38.101562 10.589844 Z M 38.765625 10.472656 L 38.25 10.761719 C 37.90625 10.953125 37.5625 11.144531 37.214844 11.335938 L 37.828125 13.683594 L 39.554688 15.390625 L 40.980469 14.617188 C 41.300781 13.550781 41.625 12.488281 41.945312 11.425781 Z M 38.765625 10.472656 " fill-opacity="1" fill-rule="evenodd"/><path fill="#064e3b" d="M 6.511719 10.304688 L 8.269531 11.339844 L 7.535156 13.898438 L 5.597656 15.714844 L 5.527344 15.671875 C 5.023438 15.378906 4.515625 15.085938 4.011719 14.796875 L 3.972656 14.773438 L 3.003906 11.257812 L 3.113281 11.226562 C 4.230469 10.921875 5.351562 10.621094 6.46875 10.316406 Z M 3.277344 11.414062 L 4.164062 14.625 C 4.628906 14.898438 5.097656 15.167969 5.566406 15.4375 L 7.335938 13.777344 L 8.007812 11.445312 L 6.480469 10.542969 C 5.414062 10.832031 4.347656 11.121094 3.277344 11.414062 Z M 3.277344 11.414062 " fill-opacity="1" fill-rule="evenodd"/><path fill="#064e3b" d="M 34.660156 12.191406 L 36.738281 14.09375 L 37.496094 16.71875 L 33.9375 18.941406 L 28.535156 19.148438 L 28.625 18.980469 C 29.207031 17.867188 29.785156 16.757812 30.363281 15.644531 L 30.960938 14.507812 L 32.148438 13.761719 C 32.960938 13.253906 33.777344 12.746094 34.589844 12.238281 Z M 31.128906 14.664062 L 30.644531 15.589844 C 30.066406 16.699219 29.488281 17.804688 28.910156 18.914062 L 33.871094 18.722656 L 37.238281 16.617188 L 36.542969 14.214844 L 34.636719 12.472656 C 33.796875 12.996094 32.960938 13.515625 32.125 14.039062 Z M 31.128906 14.664062 " fill-opacity="1" fill-rule="evenodd"/><path fill="#064e3b" d="M 10.226562 12.25 L 10.296875 12.292969 C 11.171875 12.839844 12.046875 13.386719 12.925781 13.933594 L 13.929688 14.5625 L 14.589844 15.832031 C 15.148438 16.902344 15.703125 17.96875 16.261719 19.035156 L 16.351562 19.207031 L 10.949219 19 L 7.390625 16.773438 L 8.148438 14.148438 Z M 10.25 12.527344 L 8.34375 14.273438 L 7.648438 16.675781 L 11.015625 18.777344 L 15.976562 18.96875 C 15.386719 17.839844 14.796875 16.707031 14.207031 15.578125 L 13.757812 14.71875 L 12.898438 14.179688 C 12.015625 13.628906 11.132812 13.078125 10.25 12.527344 Z M 10.25 12.527344 " fill-opacity="1" fill-rule="evenodd"/><path fill="#064e3b" d="M 19.726562 12.984375 L 21.734375 16.390625 L 21.707031 16.449219 C 21.554688 16.734375 21.40625 17.023438 21.253906 17.3125 L 21.058594 17.6875 L 19.699219 16.933594 Z M 19.941406 13.789062 L 19.921875 16.804688 L 20.964844 17.382812 L 21.140625 17.050781 C 21.253906 16.832031 21.367188 16.617188 21.480469 16.398438 Z M 19.941406 13.789062 " fill-opacity="1" fill-rule="evenodd"/><path fill="#064e3b" d="M 24.972656 12.996094 L 25 16.945312 L 23.640625 17.699219 L 23.585938 17.597656 C 23.386719 17.21875 23.1875 16.835938 22.988281 16.457031 L 22.960938 16.402344 Z M 23.214844 16.410156 C 23.386719 16.738281 23.558594 17.066406 23.730469 17.394531 L 24.777344 16.816406 L 24.753906 13.800781 Z M 23.214844 16.410156 " fill-opacity="1" fill-rule="evenodd"/><path fill="#064e3b" d="M 38.039062 15.445312 L 39.339844 16.71875 L 40.742188 15.902344 L 40.261719 17.746094 C 40.621094 18.070312 40.980469 18.394531 41.339844 18.71875 L 41.546875 18.902344 L 39.933594 18.953125 L 39.472656 20.921875 L 39.351562 20.527344 C 39.195312 20.007812 39.035156 19.492188 38.878906 18.976562 L 35.585938 18.824219 L 38.410156 17.359375 C 38.308594 16.839844 38.207031 16.316406 38.109375 15.792969 Z M 38.394531 16.101562 C 38.476562 16.535156 38.558594 16.96875 38.640625 17.402344 L 38.65625 17.480469 L 36.421875 18.640625 L 39.046875 18.761719 L 39.070312 18.835938 C 39.195312 19.246094 39.320312 19.65625 39.445312 20.066406 L 39.753906 18.734375 L 40.984375 18.695312 L 40.839844 18.566406 C 40.582031 18.332031 40.320312 18.097656 40.0625 17.867188 L 40.011719 17.820312 L 40.390625 16.363281 L 39.304688 16.996094 Z M 38.394531 16.101562 " fill-opacity="1" fill-rule="evenodd"/><path fill="#064e3b" d="M 29.339844 15.503906 L 27.355469 18.925781 L 25.894531 18.96875 L 25.882812 17.417969 Z M 26.105469 17.546875 L 26.113281 18.742188 L 27.226562 18.707031 L 28.742188 16.089844 Z M 26.105469 17.546875 " fill-opacity="1" fill-rule="evenodd"/><path fill="#064e3b" d="M 15.390625 15.53125 L 16.347656 16.058594 C 17.160156 16.511719 17.972656 16.960938 18.785156 17.410156 L 18.84375 17.445312 L 18.832031 18.996094 L 18.71875 18.992188 C 18.289062 18.980469 17.863281 18.96875 17.433594 18.953125 L 17.371094 18.953125 Z M 15.984375 16.113281 L 16.261719 16.265625 C 17.046875 16.703125 17.835938 17.136719 18.621094 17.574219 L 18.613281 18.769531 C 18.285156 18.757812 17.960938 18.75 17.636719 18.738281 L 17.5 18.734375 Z M 15.984375 16.113281 " fill-opacity="1" fill-rule="evenodd"/><path fill="#064e3b" d="M 6.964844 15.535156 L 6.835938 16.195312 C 6.757812 16.613281 6.675781 17.03125 6.597656 17.453125 L 9.421875 18.914062 L 6.125 19.066406 C 5.96875 19.582031 5.8125 20.097656 5.652344 20.617188 L 5.53125 21.011719 L 5.074219 19.042969 L 3.460938 18.992188 L 4.042969 18.464844 C 4.277344 18.257812 4.511719 18.046875 4.746094 17.835938 L 4.265625 15.992188 L 5.664062 16.808594 Z M 5.699219 17.085938 L 4.613281 16.453125 L 4.992188 17.910156 L 4.941406 17.957031 C 4.691406 18.179688 4.441406 18.40625 4.191406 18.632812 L 4.019531 18.789062 L 5.25 18.828125 L 5.5625 20.15625 C 5.6875 19.746094 5.8125 19.335938 5.9375 18.925781 L 5.960938 18.851562 L 8.582031 18.730469 L 6.347656 17.574219 L 6.363281 17.492188 C 6.445312 17.058594 6.527344 16.625 6.613281 16.191406 Z M 5.699219 17.085938 " fill-opacity="1" fill-rule="evenodd"/><path fill="#064e3b" d="M 22.339844 17.394531 L 23.269531 19.015625 L 24.988281 18.003906 L 24.988281 19.773438 L 26.980469 19.753906 L 25.886719 21.511719 C 26.394531 21.785156 26.902344 22.054688 27.414062 22.328125 L 27.585938 22.421875 L 25.84375 23.4375 L 26.734375 25.039062 L 25.007812 25.039062 L 25.007812 26.804688 L 24.84375 26.710938 C 24.359375 26.445312 23.875 26.179688 23.390625 25.914062 L 22.484375 27.582031 L 22.386719 27.40625 C 22.117188 26.929688 21.847656 26.449219 21.578125 25.972656 C 21.015625 26.289062 20.453125 26.605469 19.890625 26.925781 L 19.722656 27.019531 L 19.761719 25.097656 L 17.929688 25.074219 L 18.835938 23.308594 L 17.375 22.519531 L 18.933594 21.441406 L 17.976562 19.792969 L 19.765625 19.792969 L 19.785156 17.964844 L 21.425781 18.957031 Z M 22.335938 17.839844 L 21.503906 19.265625 L 20.003906 18.355469 L 19.984375 20.015625 L 18.363281 20.015625 L 19.230469 21.507812 L 17.800781 22.496094 L 19.132812 23.214844 L 18.292969 24.859375 L 19.988281 24.875 L 19.953125 26.636719 L 20.542969 26.300781 C 20.882812 26.109375 21.226562 25.917969 21.566406 25.722656 L 21.664062 25.667969 L 21.71875 25.765625 C 21.972656 26.21875 22.226562 26.667969 22.480469 27.121094 L 23.300781 25.609375 L 23.398438 25.664062 C 23.863281 25.917969 24.324219 26.171875 24.785156 26.425781 L 24.785156 24.816406 L 26.355469 24.816406 L 25.542969 23.355469 L 27.132812 22.429688 C 26.789062 22.246094 26.449219 22.0625 26.105469 21.882812 L 25.574219 21.597656 L 26.578125 19.980469 L 24.765625 20 L 24.765625 18.394531 L 23.191406 19.320312 Z M 22.335938 17.839844 " fill-opacity="1" fill-rule="evenodd"/><path fill="#064e3b" d="M 38.355469 19.726562 L 39.128906 22.433594 L 38.398438 25.066406 L 34.203125 25.09375 L 29.496094 22.4375 L 33.992188 19.753906 Z M 34.054688 19.976562 L 29.9375 22.433594 L 34.261719 24.871094 L 38.230469 24.84375 L 38.898438 22.4375 L 38.191406 19.949219 Z M 34.054688 19.976562 " fill-opacity="1" fill-rule="evenodd"/><path fill="#064e3b" d="M 42.421875 19.832031 L 42.453125 19.863281 C 43.292969 20.671875 44.128906 21.480469 44.964844 22.289062 L 45.046875 22.367188 L 44.96875 22.445312 C 44.453125 22.976562 43.9375 23.507812 43.421875 24.035156 L 42.511719 24.972656 L 40.472656 24.976562 L 39.804688 22.402344 L 40.542969 19.855469 Z M 40.710938 20.074219 L 40.035156 22.40625 L 40.644531 24.753906 L 42.417969 24.75 L 43.167969 23.980469 C 43.691406 23.441406 44.210938 22.90625 44.730469 22.371094 L 42.332031 20.058594 Z M 40.710938 20.074219 " fill-opacity="1" fill-rule="evenodd"/><path fill="#064e3b" d="M 27.972656 19.835938 L 31.925781 19.871094 L 28.511719 21.875 L 27.21875 21.191406 Z M 28.105469 20.058594 L 27.523438 21.101562 L 28.507812 21.621094 L 31.117188 20.085938 Z M 28.105469 20.058594 " fill-opacity="1" fill-rule="evenodd"/><path fill="#064e3b" d="M 10.796875 19.847656 L 15.507812 22.507812 L 11.011719 25.1875 L 6.644531 25.21875 L 5.871094 22.507812 L 6.601562 19.878906 Z M 6.773438 20.097656 L 6.105469 22.507812 L 6.8125 24.996094 L 10.949219 24.96875 L 15.0625 22.511719 L 10.742188 20.070312 Z M 6.773438 20.097656 " fill-opacity="1" fill-rule="evenodd"/><path fill="#064e3b" d="M 16.863281 19.894531 L 16.894531 19.953125 C 17.117188 20.351562 17.339844 20.75 17.5625 21.152344 L 17.617188 21.25 L 16.324219 21.933594 L 12.914062 19.925781 Z M 13.71875 20.144531 L 16.328125 21.679688 L 17.3125 21.160156 C 17.117188 20.8125 16.925781 20.464844 16.734375 20.117188 Z M 13.71875 20.144531 " fill-opacity="1" fill-rule="evenodd"/><path fill="#064e3b" d="M 4.574219 19.964844 L 5.242188 22.539062 L 4.503906 25.089844 L 2.625 25.109375 L 0 22.578125 L 0.078125 22.5 C 0.617188 21.945312 1.152344 21.390625 1.691406 20.835938 L 2.535156 19.96875 Z M 2.628906 20.191406 L 1.828125 21.015625 C 1.324219 21.535156 0.820312 22.054688 0.316406 22.574219 L 2.714844 24.886719 L 4.335938 24.871094 L 5.011719 22.539062 L 4.402344 20.1875 Z M 2.628906 20.191406 " fill-opacity="1" fill-rule="evenodd"/><path fill="#064e3b" d="M 16.351562 22.996094 L 17.695312 23.777344 L 17.398438 24.261719 C 17.253906 24.5 17.109375 24.734375 16.964844 24.972656 L 16.933594 25.023438 L 15.707031 25.03125 C 14.929688 25.039062 14.15625 25.042969 13.378906 25.050781 L 12.976562 25.050781 L 13.320312 24.84375 C 14.3125 24.238281 15.304688 23.636719 16.292969 23.03125 Z M 16.355469 23.257812 C 15.6875 23.664062 15.019531 24.070312 14.351562 24.476562 L 13.78125 24.824219 C 14.421875 24.820312 15.0625 24.816406 15.703125 24.8125 L 16.808594 24.804688 C 16.9375 24.589844 17.066406 24.378906 17.195312 24.167969 L 17.386719 23.855469 Z M 16.355469 23.257812 " fill-opacity="1" fill-rule="evenodd"/><path fill="#064e3b" d="M 28.496094 23.019531 L 28.550781 23.054688 C 29.546875 23.65625 30.539062 24.253906 31.53125 24.855469 L 31.875 25.0625 L 27.921875 25.050781 L 27.15625 23.804688 Z M 27.464844 23.882812 L 28.046875 24.828125 L 31.074219 24.839844 C 30.214844 24.320312 29.351562 23.800781 28.492188 23.28125 Z M 27.464844 23.882812 " fill-opacity="1" fill-rule="evenodd"/><path fill="#064e3b" d="M 39.480469 23.839844 L 39.9375 25.808594 L 41.550781 25.859375 L 40.972656 26.378906 C 40.738281 26.589844 40.503906 26.800781 40.265625 27.015625 L 40.746094 28.855469 L 39.347656 28.042969 L 38.046875 29.316406 L 38.15625 28.734375 C 38.242188 28.289062 38.328125 27.84375 38.414062 27.398438 L 35.589844 25.9375 L 38.882812 25.785156 C 39.042969 25.269531 39.199219 24.75 39.359375 24.234375 Z M 39.449219 24.695312 C 39.324219 25.105469 39.199219 25.515625 39.074219 25.925781 L 39.050781 26 L 36.429688 26.121094 L 38.664062 27.277344 L 38.648438 27.359375 C 38.566406 27.792969 38.480469 28.226562 38.398438 28.660156 L 39.3125 27.765625 L 40.394531 28.394531 L 40.015625 26.941406 L 40.066406 26.894531 C 40.296875 26.6875 40.527344 26.480469 40.757812 26.273438 L 40.992188 26.0625 L 39.757812 26.023438 Z M 39.449219 24.695312 " fill-opacity="1" fill-rule="evenodd"/><path fill="#064e3b" d="M 5.609375 24.121094 L 5.730469 24.515625 C 5.890625 25.035156 6.046875 25.550781 6.207031 26.066406 L 9.5 26.21875 L 6.675781 27.679688 C 6.765625 28.140625 6.851562 28.601562 6.941406 29.0625 L 7.042969 29.597656 L 5.742188 28.324219 L 4.34375 29.136719 L 4.824219 27.296875 C 4.578125 27.074219 4.328125 26.851562 4.082031 26.628906 L 3.539062 26.140625 L 5.152344 26.089844 Z M 5.640625 24.976562 C 5.761719 25.371094 5.878906 25.761719 6 26.15625 L 6.039062 26.28125 L 8.660156 26.402344 L 6.425781 27.558594 L 6.441406 27.640625 C 6.523438 28.074219 6.609375 28.507812 6.691406 28.941406 L 5.777344 28.046875 L 4.695312 28.675781 L 5.074219 27.222656 L 5.023438 27.175781 C 4.769531 26.949219 4.515625 26.71875 4.261719 26.492188 L 4.097656 26.34375 L 5.332031 26.304688 Z M 5.640625 24.976562 " fill-opacity="1" fill-rule="evenodd"/><path fill="#064e3b" d="M 16.5 25.957031 L 16.410156 26.125 C 15.636719 27.605469 14.863281 29.089844 14.089844 30.570312 L 14.078125 30.597656 L 12.847656 31.367188 C 12.046875 31.867188 11.246094 32.367188 10.449219 32.867188 L 10.375 32.910156 L 8.296875 31.011719 L 7.539062 28.386719 L 11.097656 26.160156 Z M 11.164062 26.382812 L 7.800781 28.484375 L 8.492188 30.886719 L 10.402344 32.632812 C 11.207031 32.128906 12.011719 31.628906 12.816406 31.125 L 13.910156 30.441406 C 14.648438 29.023438 15.386719 27.609375 16.125 26.191406 Z M 11.164062 26.382812 " fill-opacity="1" fill-rule="evenodd"/><path fill="#064e3b" d="M 17.351562 25.972656 L 18.90625 26.003906 L 18.839844 27.464844 L 15.386719 29.398438 Z M 17.480469 26.195312 L 15.980469 28.8125 L 18.625 27.332031 L 18.671875 26.222656 Z M 17.480469 26.195312 " fill-opacity="1" fill-rule="evenodd"/><path fill="#064e3b" d="M 33.554688 25.984375 L 33.582031 26 C 34.804688 26.710938 36.03125 27.421875 37.257812 28.132812 L 37.328125 28.175781 L 37.308594 28.257812 C 37.082031 29.128906 36.855469 30 36.628906 30.871094 L 36.621094 30.902344 L 34.65625 32.800781 L 34.421875 32.664062 C 33.296875 32.011719 32.175781 31.359375 31.050781 30.707031 L 31.027344 30.695312 L 28.316406 26.011719 Z M 28.703125 26.234375 L 31.1875 30.53125 C 32.199219 31.117188 33.214844 31.707031 34.226562 32.292969 L 34.621094 32.523438 L 36.421875 30.785156 C 36.601562 30.097656 36.78125 29.40625 36.960938 28.714844 L 37.070312 28.285156 C 35.878906 27.59375 34.6875 26.898438 33.496094 26.207031 Z M 28.703125 26.234375 " fill-opacity="1" fill-rule="evenodd"/><path fill="#064e3b" d="M 25.886719 25.984375 L 27.4375 25.988281 L 27.472656 26.046875 C 27.863281 26.769531 28.257812 27.496094 28.652344 28.222656 L 29.324219 29.460938 L 25.917969 27.449219 Z M 26.113281 26.207031 L 26.136719 27.320312 L 28.746094 28.859375 L 28.523438 28.453125 C 28.117188 27.707031 27.714844 26.957031 27.308594 26.210938 Z M 26.113281 26.207031 " fill-opacity="1" fill-rule="evenodd"/><path fill="#064e3b" d="M 23.746094 27.265625 L 25.105469 28.019531 L 25.078125 31.96875 L 23.066406 28.5625 L 23.097656 28.507812 C 23.296875 28.128906 23.496094 27.746094 23.695312 27.367188 Z M 23.839844 27.570312 C 23.667969 27.898438 23.492188 28.226562 23.320312 28.554688 L 24.859375 31.164062 L 24.882812 28.148438 Z M 23.839844 27.570312 " fill-opacity="1" fill-rule="evenodd"/><path fill="#064e3b" d="M 21.140625 27.371094 L 21.421875 27.90625 C 21.542969 28.140625 21.667969 28.378906 21.789062 28.613281 L 21.820312 28.667969 L 19.808594 32.074219 L 19.78125 28.125 Z M 20.003906 28.253906 L 20.027344 31.269531 L 21.5625 28.660156 C 21.453125 28.449219 21.34375 28.234375 21.230469 28.023438 L 21.046875 27.675781 Z M 20.003906 28.253906 " fill-opacity="1" fill-rule="evenodd"/><path fill="#064e3b" d="M 18.960938 28.566406 L 19.003906 33.804688 L 16.820312 37.585938 L 14.09375 36.882812 L 14.070312 36.859375 C 13.464844 36.234375 12.855469 35.609375 12.25 34.984375 L 12.191406 34.921875 L 14.289062 31.289062 Z M 14.453125 31.449219 L 12.46875 34.886719 C 13.046875 35.488281 13.628906 36.085938 14.210938 36.683594 L 16.710938 37.328125 L 18.78125 33.746094 L 18.742188 28.953125 Z M 14.453125 31.449219 " fill-opacity="1" fill-rule="evenodd"/><path fill="#064e3b" d="M 25.75 28.589844 L 25.917969 28.675781 C 27.410156 29.429688 28.902344 30.183594 30.394531 30.9375 L 30.421875 30.949219 L 32.785156 34.621094 L 32.726562 34.683594 C 32.128906 35.355469 31.53125 36.03125 30.933594 36.703125 L 30.910156 36.726562 L 28.296875 37.519531 L 26.027344 33.988281 Z M 25.992188 28.960938 L 26.246094 33.917969 L 28.394531 37.257812 L 30.785156 36.53125 C 31.359375 35.886719 31.933594 35.242188 32.507812 34.601562 L 30.269531 31.121094 C 28.84375 30.402344 27.417969 29.679688 25.992188 28.960938 Z M 25.992188 28.960938 " fill-opacity="1" fill-rule="evenodd"/><path fill="#064e3b" d="M 39.457031 29.125 L 41.105469 30.023438 L 41.121094 30.066406 C 41.398438 30.992188 41.679688 31.914062 41.957031 32.835938 L 42.164062 33.515625 L 38.683594 34.558594 L 36.898438 33.566406 L 37.570312 30.992188 Z M 39.496094 29.402344 L 37.769531 31.109375 L 37.15625 33.457031 L 38.707031 34.316406 L 41.886719 33.367188 L 41.789062 33.039062 C 41.5 32.085938 41.210938 31.132812 40.921875 30.175781 Z M 39.496094 29.402344 " fill-opacity="1" fill-rule="evenodd"/><path fill="#064e3b" d="M 5.703125 29.285156 L 7.589844 31.15625 L 8.253906 33.726562 L 6.652344 34.703125 L 3.101562 33.863281 L 3.949219 30.328125 Z M 4.144531 30.472656 L 3.371094 33.699219 L 6.613281 34.464844 L 8 33.621094 L 7.390625 31.269531 L 5.667969 29.5625 Z M 4.144531 30.472656 " fill-opacity="1" fill-rule="evenodd"/><path fill="#064e3b" d="M 22.351562 29.683594 L 22.535156 29.980469 C 23.371094 31.367188 24.207031 32.753906 25.042969 34.140625 L 25.058594 34.167969 L 25.105469 38.53125 L 24.722656 38.644531 C 23.957031 38.867188 23.195312 39.085938 22.433594 39.308594 L 22.402344 39.316406 L 19.769531 38.601562 L 19.71875 34.402344 Z M 22.359375 30.125 L 19.941406 34.460938 L 19.988281 38.429688 L 22.402344 39.085938 C 23.226562 38.847656 24.054688 38.605469 24.882812 38.367188 L 24.835938 34.230469 C 24.011719 32.863281 23.1875 31.492188 22.359375 30.125 Z M 22.359375 30.125 " fill-opacity="1" fill-rule="evenodd"/><path fill="#064e3b" d="M 31.972656 32 L 34.902344 33.515625 C 35.296875 33.148438 35.695312 32.777344 36.089844 32.410156 L 36.390625 32.125 L 35.804688 34.0625 L 37.179688 34.910156 L 35.488281 35.269531 L 34.984375 37.105469 L 34.175781 35.703125 L 32.414062 36.15625 L 33.691406 34.679688 Z M 32.609375 32.582031 L 33.96875 34.699219 L 33.046875 35.761719 L 34.285156 35.445312 L 34.910156 36.53125 L 35.308594 35.082031 L 36.589844 34.808594 L 35.542969 34.160156 L 35.9375 32.851562 L 35.859375 32.925781 C 35.574219 33.195312 35.285156 33.464844 35 33.730469 L 34.941406 33.785156 Z M 32.609375 32.582031 " fill-opacity="1" fill-rule="evenodd"/><path fill="#064e3b" d="M 12.933594 32.191406 L 11.214844 34.867188 L 12.492188 36.34375 L 10.730469 35.890625 L 9.921875 37.296875 L 9.417969 35.460938 L 7.726562 35.101562 L 9.101562 34.25 L 8.515625 32.316406 L 8.816406 32.597656 C 9.207031 32.964844 9.601562 33.328125 9.992188 33.695312 L 10.003906 33.707031 Z M 9.964844 33.976562 L 9.90625 33.921875 C 9.59375 33.628906 9.28125 33.335938 8.96875 33.042969 L 9.363281 34.347656 L 8.316406 34.996094 L 9.597656 35.269531 L 9.996094 36.722656 L 10.621094 35.632812 L 11.859375 35.953125 L 10.9375 34.886719 L 12.296875 32.769531 Z M 9.964844 33.976562 " fill-opacity="1" fill-rule="evenodd"/><path fill="#064e3b" d="M 19.058594 35.527344 L 18.890625 38.703125 C 19.394531 38.882812 19.894531 39.058594 20.394531 39.238281 L 20.730469 39.355469 L 20.386719 39.449219 C 19.917969 39.578125 19.445312 39.703125 18.976562 39.832031 L 18.96875 41.453125 L 18.78125 41.265625 C 18.511719 40.996094 18.246094 40.730469 17.976562 40.460938 L 17.625 40.105469 C 17.164062 40.253906 16.703125 40.402344 16.238281 40.546875 L 15.976562 40.628906 L 16.109375 40.386719 C 16.320312 39.996094 16.535156 39.605469 16.75 39.210938 L 15.28125 37.820312 L 17.261719 38.292969 Z M 17.363281 38.546875 L 16.035156 38.230469 L 17.027344 39.167969 L 16.769531 39.640625 C 16.65625 39.84375 16.546875 40.046875 16.4375 40.25 C 16.808594 40.132812 17.183594 40.015625 17.554688 39.894531 L 17.683594 39.855469 L 17.734375 39.902344 C 18.070312 40.242188 18.410156 40.578125 18.75 40.917969 L 18.753906 39.664062 L 19.503906 39.457031 C 19.664062 39.414062 19.824219 39.371094 19.988281 39.328125 C 19.570312 39.179688 19.15625 39.03125 18.738281 38.886719 L 18.660156 38.855469 L 18.792969 36.34375 Z M 17.363281 38.546875 " fill-opacity="1" fill-rule="evenodd"/><path fill="#064e3b" d="M 25.945312 35.535156 L 27.742188 38.300781 L 29.722656 37.828125 L 28.253906 39.21875 C 28.46875 39.613281 28.683594 40.003906 28.894531 40.394531 L 29.027344 40.636719 L 28.765625 40.554688 C 28.445312 40.453125 28.128906 40.351562 27.808594 40.25 L 27.378906 40.113281 L 26.996094 40.5 C 26.738281 40.757812 26.480469 41.015625 26.222656 41.269531 L 26.035156 41.460938 L 26.027344 39.839844 C 25.558594 39.710938 25.085938 39.582031 24.617188 39.457031 L 24.273438 39.363281 L 24.609375 39.242188 C 25.109375 39.066406 25.609375 38.886719 26.113281 38.710938 Z M 26.210938 36.351562 L 26.34375 38.863281 L 26.265625 38.890625 C 25.847656 39.039062 25.433594 39.1875 25.015625 39.335938 C 25.179688 39.378906 25.34375 39.421875 25.507812 39.46875 L 26.25 39.671875 L 26.253906 40.925781 C 26.449219 40.730469 26.644531 40.535156 26.835938 40.34375 L 27.320312 39.863281 L 27.382812 39.882812 C 27.777344 40.007812 28.171875 40.132812 28.566406 40.257812 C 28.453125 40.050781 28.34375 39.84375 28.230469 39.636719 L 27.980469 39.175781 L 28.96875 38.238281 L 27.640625 38.554688 Z M 26.210938 36.351562 " fill-opacity="1" fill-rule="evenodd"/><path fill="#064e3b" d="M 33.820312 36.585938 L 34.796875 38.1875 L 33.960938 41.738281 L 30.425781 40.894531 L 29.378906 39.144531 L 31.25 37.253906 Z M 31.363281 37.453125 L 29.660156 39.179688 L 30.570312 40.703125 L 33.796875 41.472656 L 34.558594 38.226562 L 33.714844 36.84375 Z M 31.363281 37.453125 " fill-opacity="1" fill-rule="evenodd"/><path fill="#064e3b" d="M 11.257812 36.726562 L 13.832031 37.394531 L 13.851562 37.417969 C 14.449219 38.019531 15.042969 38.625 15.636719 39.226562 L 15.695312 39.285156 L 14.796875 40.933594 L 11.308594 41.992188 L 10.265625 38.511719 Z M 11.367188 36.984375 L 13.714844 37.597656 C 14.285156 38.171875 14.851562 38.75 15.421875 39.324219 L 14.648438 40.75 L 11.457031 41.714844 L 10.507812 38.535156 Z M 11.367188 36.984375 " fill-opacity="1" fill-rule="evenodd"/><path fill="#064e3b" d="M 22.609375 39.753906 L 25.148438 40.523438 L 25.148438 42.398438 L 25.117188 42.433594 C 24.390625 43.171875 23.660156 43.910156 22.933594 44.648438 L 22.589844 44.996094 L 20.007812 42.4375 L 20.011719 42.390625 C 20.015625 41.753906 20.023438 41.117188 20.027344 40.480469 L 20.027344 40.394531 Z M 20.25 40.570312 C 20.242188 41.160156 20.238281 41.753906 20.234375 42.34375 L 22.585938 44.683594 C 23.367188 43.890625 24.148438 43.101562 24.925781 42.308594 L 24.925781 40.6875 L 22.601562 39.984375 Z M 20.25 40.570312 " fill-opacity="1" fill-rule="evenodd"/></svg>